<svg xmlns="http://www.w3.org/2000/svg" viewBox="0 0 1600 1000" preserveAspectRatio="xMidYMid slice"><defs><linearGradient id="sky0" x1="0" y1="0" x2="0" y2="1"><stop offset="0" stop-color="#8fa7bd"/><stop offset="0.55" stop-color="#c2ccd2"/><stop offset="1" stop-color="#e2ded4"/></linearGradient><radialGradient id="sun1" cx="0.5" cy="0.5" r="0.5"><stop offset="0" stop-color="#f4ead6" stop-opacity="0.5"/><stop offset="1" stop-color="#f4ead6" stop-opacity="0"/></radialGradient><linearGradient id="cs2" x1="0" y1="0" x2="0" y2="1"><stop offset="0" stop-color="#6e8496"/><stop offset="1" stop-color="#2c3d51"/></linearGradient><linearGradient id="cp3" x1="0" y1="0" x2="0" y2="1"><stop offset="0" stop-color="#f4ead6" stop-opacity="0.35"/><stop offset="1" stop-color="#f4ead6" stop-opacity="0"/></linearGradient><linearGradient id="hz4" x1="0" y1="0" x2="0" y2="1"><stop offset="0" stop-color="#aab6bf" stop-opacity="0"/><stop offset="0.55" stop-color="#aab6bf" stop-opacity="0.4"/><stop offset="1" stop-color="#aab6bf" stop-opacity="0"/></linearGradient><radialGradient id="pl5" cx="0.5" cy="0.5" r="0.5"><stop offset="0" stop-color="#f4ead6" stop-opacity="0.6"/><stop offset="1" stop-color="#f4ead6" stop-opacity="0"/></radialGradient><radialGradient id="pl6" cx="0.5" cy="0.5" r="0.5"><stop offset="0" stop-color="#f4ead6" stop-opacity="0.6"/><stop offset="1" stop-color="#f4ead6" stop-opacity="0"/></radialGradient><radialGradient id="pl7" cx="0.5" cy="0.5" r="0.5"><stop offset="0" stop-color="#f4ead6" stop-opacity="0.6"/><stop offset="1" stop-color="#f4ead6" stop-opacity="0"/></radialGradient><radialGradient id="pl8" cx="0.5" cy="0.5" r="0.5"><stop offset="0" stop-color="#f4ead6" stop-opacity="0.6"/><stop offset="1" stop-color="#f4ead6" stop-opacity="0"/></radialGradient><radialGradient id="pl9" cx="0.5" cy="0.5" r="0.5"><stop offset="0" stop-color="#f4ead6" stop-opacity="0.6"/><stop offset="1" stop-color="#f4ead6" stop-opacity="0"/></radialGradient><radialGradient id="pla" cx="0.5" cy="0.5" r="0.5"><stop offset="0" stop-color="#f4ead6" stop-opacity="0.6"/><stop offset="1" stop-color="#f4ead6" stop-opacity="0"/></radialGradient><radialGradient id="plb" cx="0.5" cy="0.5" r="0.5"><stop offset="0" stop-color="#f4ead6" stop-opacity="0.6"/><stop offset="1" stop-color="#f4ead6" stop-opacity="0"/></radialGradient><radialGradient id="plc" cx="0.5" cy="0.5" r="0.5"><stop offset="0" stop-color="#f4ead6" stop-opacity="0.6"/><stop offset="1" stop-color="#f4ead6" stop-opacity="0"/></radialGradient><radialGradient id="pld" cx="0.5" cy="0.5" r="0.5"><stop offset="0" stop-color="#f4ead6" stop-opacity="0.6"/><stop offset="1" stop-color="#f4ead6" stop-opacity="0"/></radialGradient><radialGradient id="vge" cx="0.5" cy="0.46" r="0.75"><stop offset="0" stop-color="#000000" stop-opacity="0"/><stop offset="0.62" stop-color="#000000" stop-opacity="0"/><stop offset="1" stop-color="#05060c" stop-opacity="0.52"/></radialGradient><filter id="grf" x="0" y="0" width="100%" height="100%"><feTurbulence type="fractalNoise" baseFrequency="0.9" numOctaves="2" stitchTiles="stitch"/><feColorMatrix type="matrix" values="0 0 0 0 0.5 0 0 0 0 0.5 0 0 0 0 0.5 0 0 0 0.6 0"/></filter></defs><rect x="0.0" y="0.0" width="1600.0" height="1000.0" fill="url(#sky0)" /><circle cx="1120" cy="550" r="640" fill="url(#sun1)"/><rect x="0.0" y="600.0" width="1600.0" height="400.0" fill="url(#cs2)" /><rect x="0.0" y="600.0" width="1600.0" height="2.4" fill="#f4ead6" opacity="0.35"/><polygon points="1056.0,600.0 1184.0,600.0 1312.0,1000.0 928.0,1000.0" fill="url(#cp3)" /><polygon points="0.0,1000.0 0.0,300.0 224.0,340.0 544.0,480.0 832.0,580.0 960.0,600.0 640.0,1000.0" fill="#161226" /><rect x="17.4" y="331.3" width="82.7" height="35.6" fill="#1d1830" /><rect x="26.3" y="337.5" width="27.6" height="6.0" fill="#f4ead6" opacity="0.58"/><rect x="26.3" y="346.1" width="27.6" height="6.0" fill="#51617a" opacity="0.61"/><rect x="26.3" y="354.6" width="27.6" height="6.0" fill="#f4ead6" opacity="0.96"/><rect x="63.6" y="337.5" width="27.6" height="6.0" fill="#51617a" opacity="0.62"/><rect x="63.6" y="346.1" width="27.6" height="6.0" fill="#f4ead6" opacity="0.76"/><rect x="63.6" y="354.6" width="27.6" height="6.0" fill="#51617a" opacity="0.83"/><rect x="91.1" y="327.1" width="82.5" height="37.4" fill="#241e36" /><rect x="98.3" y="336.2" width="18.4" height="19.2" fill="#51617a" opacity="0.56"/><rect x="123.1" y="336.2" width="18.4" height="19.2" fill="#51617a" opacity="0.60"/><rect x="148.0" y="336.2" width="18.4" height="19.2" fill="#f4ead6" opacity="0.74"/><rect x="117.9" y="357.5" width="74.3" height="36.3" fill="#2b2440" /><rect x="126.2" y="366.4" width="24.5" height="18.5" fill="#f4ead6" opacity="0.58"/><rect x="159.3" y="366.4" width="24.5" height="18.5" fill="#51617a" opacity="0.86"/><rect x="168.5" y="369.8" width="84.3" height="48.7" fill="#1d1830" /><rect x="177.5" y="376.7" width="28.2" height="9.0" fill="#f4ead6" opacity="0.51"/><rect x="177.5" y="389.6" width="28.2" height="9.0" fill="#51617a" opacity="0.52"/><rect x="177.5" y="402.5" width="28.2" height="9.0" fill="#f4ead6" opacity="0.78"/><rect x="215.6" y="376.7" width="28.2" height="9.0" fill="#f4ead6" opacity="0.88"/><rect x="215.6" y="389.6" width="28.2" height="9.0" fill="#f4ead6" opacity="0.78"/><rect x="215.6" y="402.5" width="28.2" height="9.0" fill="#51617a" opacity="0.77"/><rect x="248.8" y="378.4" width="69.4" height="49.9" fill="#2b2440" /><rect x="254.8" y="386.4" width="11.4" height="14.0" fill="#51617a" opacity="0.59"/><rect x="254.8" y="406.3" width="11.4" height="14.0" fill="#f4ead6" opacity="0.98"/><rect x="270.1" y="386.4" width="11.4" height="14.0" fill="#f4ead6" opacity="0.78"/><rect x="270.1" y="406.3" width="11.4" height="14.0" fill="#51617a" opacity="0.86"/><rect x="285.4" y="386.4" width="11.4" height="14.0" fill="#f4ead6" opacity="0.87"/><rect x="285.4" y="406.3" width="11.4" height="14.0" fill="#51617a" opacity="0.56"/><rect x="300.8" y="386.4" width="11.4" height="14.0" fill="#51617a" opacity="0.78"/><rect x="300.8" y="406.3" width="11.4" height="14.0" fill="#f4ead6" opacity="0.67"/><rect x="263.3" y="401.8" width="56.2" height="32.7" fill="#241e36" /><rect x="269.3" y="408.4" width="11.9" height="8.0" fill="#51617a" opacity="0.71"/><rect x="269.3" y="419.8" width="11.9" height="8.0" fill="#51617a" opacity="0.73"/><rect x="285.4" y="408.4" width="11.9" height="8.0" fill="#f4ead6" opacity="0.73"/><rect x="285.4" y="419.8" width="11.9" height="8.0" fill="#f4ead6" opacity="0.87"/><rect x="301.4" y="408.4" width="11.9" height="8.0" fill="#f4ead6" opacity="0.75"/><rect x="301.4" y="419.8" width="11.9" height="8.0" fill="#f4ead6" opacity="0.98"/><rect x="342.0" y="422.3" width="86.8" height="37.7" fill="#2b2440" /><rect x="351.1" y="431.4" width="29.2" height="19.4" fill="#f4ead6" opacity="0.62"/><rect x="390.5" y="431.4" width="29.2" height="19.4" fill="#f4ead6" opacity="0.77"/><rect x="378.5" y="428.3" width="65.8" height="36.7" fill="#241e36" /><rect x="385.0" y="435.3" width="14.2" height="9.4" fill="#51617a" opacity="0.72"/><rect x="385.0" y="448.7" width="14.2" height="9.4" fill="#51617a" opacity="0.83"/><rect x="404.2" y="435.3" width="14.2" height="9.4" fill="#f4ead6" opacity="0.78"/><rect x="404.2" y="448.7" width="14.2" height="9.4" fill="#f4ead6" opacity="0.55"/><rect x="423.5" y="435.3" width="14.2" height="9.4" fill="#51617a" opacity="0.81"/><rect x="423.5" y="448.7" width="14.2" height="9.4" fill="#51617a" opacity="0.72"/><rect x="422.7" y="436.2" width="55.8" height="55.8" fill="#2b2440" /><rect x="428.3" y="443.4" width="8.8" height="10.7" fill="#f4ead6" opacity="0.89"/><rect x="428.3" y="458.7" width="8.8" height="10.7" fill="#51617a" opacity="0.63"/><rect x="428.3" y="474.0" width="8.8" height="10.7" fill="#51617a" opacity="0.85"/><rect x="440.2" y="443.4" width="8.8" height="10.7" fill="#51617a" opacity="0.58"/><rect x="440.2" y="458.7" width="8.8" height="10.7" fill="#51617a" opacity="0.51"/><rect x="440.2" y="474.0" width="8.8" height="10.7" fill="#f4ead6" opacity="0.68"/><rect x="452.2" y="443.4" width="8.8" height="10.7" fill="#f4ead6" opacity="0.98"/><rect x="452.2" y="458.7" width="8.8" height="10.7" fill="#f4ead6" opacity="0.61"/><rect x="452.2" y="474.0" width="8.8" height="10.7" fill="#f4ead6" opacity="0.64"/><rect x="464.1" y="443.4" width="8.8" height="10.7" fill="#51617a" opacity="0.56"/><rect x="464.1" y="458.7" width="8.8" height="10.7" fill="#f4ead6" opacity="0.82"/><rect x="464.1" y="474.0" width="8.8" height="10.7" fill="#f4ead6" opacity="0.69"/><rect x="500.6" y="470.8" width="56.0" height="43.9" fill="#1d1830" /><rect x="507.8" y="478.4" width="17.8" height="11.9" fill="#f4ead6" opacity="0.58"/><rect x="507.8" y="495.4" width="17.8" height="11.9" fill="#f4ead6" opacity="0.66"/><rect x="531.8" y="478.4" width="17.8" height="11.9" fill="#51617a" opacity="0.85"/><rect x="531.8" y="495.4" width="17.8" height="11.9" fill="#f4ead6" opacity="0.88"/><rect x="530.4" y="465.2" width="40.0" height="44.8" fill="#1d1830" /><rect x="535.8" y="472.8" width="7.9" height="12.2" fill="#f4ead6" opacity="0.59"/><rect x="535.8" y="490.2" width="7.9" height="12.2" fill="#f4ead6" opacity="0.67"/><rect x="546.5" y="472.8" width="7.9" height="12.2" fill="#f4ead6" opacity="0.90"/><rect x="546.5" y="490.2" width="7.9" height="12.2" fill="#f4ead6" opacity="0.60"/><rect x="557.1" y="472.8" width="7.9" height="12.2" fill="#51617a" opacity="0.58"/><rect x="557.1" y="490.2" width="7.9" height="12.2" fill="#f4ead6" opacity="0.98"/><rect x="564.3" y="494.1" width="82.6" height="47.5" fill="#1d1830" /><rect x="570.8" y="504.7" width="13.8" height="26.3" fill="#51617a" opacity="0.52"/><rect x="589.4" y="504.7" width="13.8" height="26.3" fill="#f4ead6" opacity="0.77"/><rect x="608.1" y="504.7" width="13.8" height="26.3" fill="#51617a" opacity="0.52"/><rect x="626.7" y="504.7" width="13.8" height="26.3" fill="#51617a" opacity="0.62"/><rect x="636.5" y="511.7" width="54.8" height="42.5" fill="#1d1830" /><rect x="642.0" y="518.3" width="8.7" height="7.6" fill="#51617a" opacity="0.80"/><rect x="642.0" y="529.2" width="8.7" height="7.6" fill="#f4ead6" opacity="0.90"/><rect x="642.0" y="540.0" width="8.7" height="7.6" fill="#51617a" opacity="0.59"/><rect x="653.7" y="518.3" width="8.7" height="7.6" fill="#f4ead6" opacity="0.93"/><rect x="653.7" y="529.2" width="8.7" height="7.6" fill="#51617a" opacity="0.56"/><rect x="653.7" y="540.0" width="8.7" height="7.6" fill="#f4ead6" opacity="0.52"/><rect x="665.4" y="518.3" width="8.7" height="7.6" fill="#51617a" opacity="0.54"/><rect x="665.4" y="529.2" width="8.7" height="7.6" fill="#f4ead6" opacity="0.92"/><rect x="665.4" y="540.0" width="8.7" height="7.6" fill="#f4ead6" opacity="0.69"/><rect x="677.1" y="518.3" width="8.7" height="7.6" fill="#f4ead6" opacity="0.77"/><rect x="677.1" y="529.2" width="8.7" height="7.6" fill="#f4ead6" opacity="0.84"/><rect x="677.1" y="540.0" width="8.7" height="7.6" fill="#51617a" opacity="0.54"/><rect x="696.0" y="524.4" width="68.7" height="41.7" fill="#1d1830" /><rect x="702.6" y="531.8" width="15.0" height="11.1" fill="#f4ead6" opacity="0.61"/><rect x="702.6" y="547.6" width="15.0" height="11.1" fill="#51617a" opacity="0.86"/><rect x="722.9" y="531.8" width="15.0" height="11.1" fill="#f4ead6" opacity="0.95"/><rect x="722.9" y="547.6" width="15.0" height="11.1" fill="#51617a" opacity="0.63"/><rect x="743.1" y="531.8" width="15.0" height="11.1" fill="#f4ead6" opacity="0.91"/><rect x="743.1" y="547.6" width="15.0" height="11.1" fill="#51617a" opacity="0.79"/><rect x="721.3" y="540.6" width="45.0" height="48.6" fill="#241e36" /><rect x="726.5" y="551.4" width="6.8" height="27.1" fill="#f4ead6" opacity="0.89"/><rect x="735.7" y="551.4" width="6.8" height="27.1" fill="#51617a" opacity="0.61"/><rect x="745.0" y="551.4" width="6.8" height="27.1" fill="#51617a" opacity="0.83"/><rect x="754.2" y="551.4" width="6.8" height="27.1" fill="#51617a" opacity="0.63"/><rect x="787.7" y="569.4" width="86.9" height="34.8" fill="#1d1830" /><rect x="796.8" y="576.2" width="29.2" height="8.7" fill="#f4ead6" opacity="0.79"/><rect x="796.8" y="588.6" width="29.2" height="8.7" fill="#f4ead6" opacity="0.98"/><rect x="836.3" y="576.2" width="29.2" height="8.7" fill="#51617a" opacity="0.66"/><rect x="836.3" y="588.6" width="29.2" height="8.7" fill="#f4ead6" opacity="0.83"/><rect x="0.0" y="500.0" width="1600.0" height="120.0" fill="url(#hz4)" /><circle cx="80" cy="680" r="26" fill="url(#pl5)"/><ellipse cx="80.0" cy="680.0" rx="2.6" ry="2.6" fill="#ffe4b0" /><circle cx="176" cy="688" r="26" fill="url(#pl6)"/><ellipse cx="176.0" cy="688.0" rx="2.6" ry="2.6" fill="#ffe4b0" /><circle cx="272" cy="696.0000000000001" r="26" fill="url(#pl7)"/><ellipse cx="272.0" cy="696.0" rx="2.6" ry="2.6" fill="#ffe4b0" /><circle cx="368" cy="704.0000000000001" r="26" fill="url(#pl8)"/><ellipse cx="368.0" cy="704.0" rx="2.6" ry="2.6" fill="#ffe4b0" /><circle cx="464" cy="712.0000000000001" r="26" fill="url(#pl9)"/><ellipse cx="464.0" cy="712.0" rx="2.6" ry="2.6" fill="#ffe4b0" /><circle cx="560" cy="720.0000000000001" r="26" fill="url(#pla)"/><ellipse cx="560.0" cy="720.0" rx="2.6" ry="2.6" fill="#ffe4b0" /><circle cx="656" cy="728.0000000000001" r="26" fill="url(#plb)"/><ellipse cx="656.0" cy="728.0" rx="2.6" ry="2.6" fill="#ffe4b0" /><circle cx="752" cy="736.0000000000001" r="26" fill="url(#plc)"/><ellipse cx="752.0" cy="736.0" rx="2.6" ry="2.6" fill="#ffe4b0" /><circle cx="848" cy="744" r="26" fill="url(#pld)"/><ellipse cx="848.0" cy="744.0" rx="2.6" ry="2.6" fill="#ffe4b0" /><rect x="1229.2" y="791.2" width="84.1" height="1.5" fill="#000" opacity="0.05"/><rect x="724.9" y="831.0" width="128.0" height="1.5" fill="#000" opacity="0.08"/><rect x="666.1" y="858.3" width="63.0" height="1.5" fill="#000" opacity="0.10"/><rect x="156.8" y="974.5" width="112.1" height="1.5" fill="#000" opacity="0.08"/><rect x="913.6" y="804.5" width="42.4" height="1.5" fill="#000" opacity="0.05"/><rect x="947.1" y="753.7" width="86.8" height="1.5" fill="#000" opacity="0.06"/><rect x="302.0" y="923.1" width="110.3" height="1.5" fill="#000" opacity="0.11"/><rect x="852.0" y="746.7" width="96.7" height="1.5" fill="#000" opacity="0.13"/><rect x="1342.5" y="822.4" width="55.4" height="1.5" fill="#000" opacity="0.11"/><rect x="318.5" y="880.5" width="130.4" height="1.5" fill="#000" opacity="0.08"/><rect x="426.1" y="771.6" width="133.3" height="1.5" fill="#000" opacity="0.12"/><rect x="284.5" y="703.4" width="33.4" height="1.5" fill="#000" opacity="0.13"/><rect x="541.7" y="683.9" width="122.1" height="1.5" fill="#000" opacity="0.10"/><rect x="86.4" y="913.7" width="138.6" height="1.5" fill="#000" opacity="0.09"/><rect x="222.7" y="894.0" width="139.6" height="1.5" fill="#000" opacity="0.11"/><rect x="374.0" y="860.6" width="101.3" height="1.5" fill="#000" opacity="0.08"/><rect x="168.5" y="827.0" width="61.9" height="1.5" fill="#000" opacity="0.08"/><rect x="527.8" y="879.2" width="85.2" height="1.5" fill="#000" opacity="0.13"/><rect x="1328.8" y="762.0" width="125.5" height="1.5" fill="#000" opacity="0.06"/><rect x="343.8" y="966.7" width="74.0" height="1.5" fill="#000" opacity="0.12"/><rect x="0.0" y="0.0" width="1600.0" height="1000.0" fill="url(#vge)" /><rect x="0" y="0" width="1600" height="1000" filter="url(#grf)" opacity="0.05"/></svg>