<svg xmlns="http://www.w3.org/2000/svg" viewBox="0 0 1600 1000" preserveAspectRatio="xMidYMid slice"><defs><linearGradient id="sky0" x1="0" y1="0" x2="0" y2="1"><stop offset="0" stop-color="#332742"/><stop offset="0.5" stop-color="#75484d"/><stop offset="0.82" stop-color="#c98a5e"/><stop offset="1" stop-color="#e8b476"/></linearGradient><radialGradient id="sun1" cx="0.5" cy="0.5" r="0.5"><stop offset="0" stop-color="#f7cf96" stop-opacity="0.65"/><stop offset="1" stop-color="#f7cf96" stop-opacity="0"/></radialGradient><linearGradient id="hz2" x1="0" y1="0" x2="0" y2="1"><stop offset="0" stop-color="#5c4053" stop-opacity="0"/><stop offset="0.55" stop-color="#5c4053" stop-opacity="0.55"/><stop offset="1" stop-color="#5c4053" stop-opacity="0"/></linearGradient><radialGradient id="wl3" cx="0.5" cy="0.5" r="0.5"><stop offset="0" stop-color="#f7d49b" stop-opacity="0.8"/><stop offset="1" stop-color="#f7d49b" stop-opacity="0"/></radialGradient><radialGradient id="wl4" cx="0.5" cy="0.5" r="0.5"><stop offset="0" stop-color="#f7d49b" stop-opacity="0.8"/><stop offset="1" stop-color="#f7d49b" stop-opacity="0"/></radialGradient><radialGradient id="wl5" cx="0.5" cy="0.5" r="0.5"><stop offset="0" stop-color="#f7d49b" stop-opacity="0.8"/><stop offset="1" stop-color="#f7d49b" stop-opacity="0"/></radialGradient><radialGradient id="wl6" cx="0.5" cy="0.5" r="0.5"><stop offset="0" stop-color="#f7d49b" stop-opacity="0.8"/><stop offset="1" stop-color="#f7d49b" stop-opacity="0"/></radialGradient><radialGradient id="wl7" cx="0.5" cy="0.5" r="0.5"><stop offset="0" stop-color="#f7d49b" stop-opacity="0.8"/><stop offset="1" stop-color="#f7d49b" stop-opacity="0"/></radialGradient><radialGradient id="wl8" cx="0.5" cy="0.5" r="0.5"><stop offset="0" stop-color="#f7d49b" stop-opacity="0.8"/><stop offset="1" stop-color="#f7d49b" stop-opacity="0"/></radialGradient><radialGradient id="wl9" cx="0.5" cy="0.5" r="0.5"><stop offset="0" stop-color="#f7d49b" stop-opacity="0.8"/><stop offset="1" stop-color="#f7d49b" stop-opacity="0"/></radialGradient><linearGradient id="gda" x1="0" y1="0" x2="0" y2="1"><stop offset="0" stop-color="#2c2130"/><stop offset="1" stop-color="#120d16"/></linearGradient><radialGradient id="sgb" cx="0.5" cy="0.5" r="0.5"><stop offset="0" stop-color="#f7d49b" stop-opacity="0.5"/><stop offset="1" stop-color="#f7d49b" stop-opacity="0"/></radialGradient><radialGradient id="vgc" cx="0.5" cy="0.46" r="0.75"><stop offset="0" stop-color="#000000" stop-opacity="0"/><stop offset="0.62" stop-color="#000000" stop-opacity="0"/><stop offset="1" stop-color="#05060c" stop-opacity="0.55"/></radialGradient><filter id="grd" x="0" y="0" width="100%" height="100%"><feTurbulence type="fractalNoise" baseFrequency="0.9" numOctaves="2" stitchTiles="stitch"/><feColorMatrix type="matrix" values="0 0 0 0 0.5 0 0 0 0 0.5 0 0 0 0 0.5 0 0 0 0.6 0"/></filter></defs><rect x="0.0" y="0.0" width="1600.0" height="1000.0" fill="url(#sky0)" /><circle cx="544" cy="620" r="704" fill="url(#sun1)"/><rect x="-40.0" y="695.9" width="52.9" height="88.1" fill="#42324c" opacity="0.7"/><rect x="65.2" y="636.5" width="70.5" height="147.5" fill="#42324c" opacity="0.7"/><rect x="176.1" y="673.3" width="93.8" height="110.7" fill="#42324c" opacity="0.7"/><rect x="320.5" y="612.3" width="75.6" height="171.7" fill="#42324c" opacity="0.7"/><rect x="420.3" y="642.8" width="122.4" height="141.2" fill="#42324c" opacity="0.7"/><rect x="569.3" y="613.5" width="107.3" height="170.5" fill="#42324c" opacity="0.7"/><rect x="622.9" y="587.5" width="2.4" height="40.0" fill="#42324c" opacity="0.7"/><rect x="686.8" y="692.6" width="79.7" height="91.4" fill="#42324c" opacity="0.7"/><rect x="825.9" y="637.9" width="92.7" height="146.1" fill="#42324c" opacity="0.7"/><rect x="946.0" y="721.3" width="131.0" height="62.7" fill="#42324c" opacity="0.7"/><rect x="1011.5" y="690.6" width="2.4" height="40.0" fill="#42324c" opacity="0.7"/><rect x="1113.4" y="684.8" width="113.4" height="99.2" fill="#42324c" opacity="0.7"/><rect x="1237.4" y="644.0" width="46.6" height="140.0" fill="#42324c" opacity="0.7"/><rect x="1260.7" y="616.4" width="2.4" height="40.0" fill="#42324c" opacity="0.7"/><rect x="1312.4" y="646.8" width="96.7" height="137.2" fill="#42324c" opacity="0.7"/><rect x="1441.0" y="636.9" width="116.6" height="147.1" fill="#42324c" opacity="0.7"/><rect x="1581.6" y="723.0" width="121.0" height="61.0" fill="#42324c" opacity="0.7"/><rect x="1642.1" y="710.8" width="2.4" height="40.0" fill="#42324c" opacity="0.7"/><rect x="0.0" y="640.0" width="1600.0" height="160.0" fill="url(#hz2)" /><rect x="800.0" y="255.0" width="544.0" height="10.0" fill="#221a28" /><rect x="800.0" y="320.0" width="544.0" height="10.0" fill="#221a28" /><rect x="800.0" y="385.0" width="544.0" height="10.0" fill="#221a28" /><rect x="800.0" y="450.0" width="544.0" height="10.0" fill="#221a28" /><rect x="800.0" y="515.0" width="544.0" height="10.0" fill="#221a28" /><rect x="800.0" y="580.0" width="544.0" height="10.0" fill="#221a28" /><rect x="800.0" y="645.0" width="544.0" height="10.0" fill="#221a28" /><rect x="800.0" y="710.0" width="544.0" height="10.0" fill="#221a28" /><rect x="800.0" y="775.0" width="544.0" height="10.0" fill="#221a28" /><rect x="796.5" y="260.0" width="7.0" height="520.0" fill="#221a28" /><rect x="887.2" y="260.0" width="7.0" height="520.0" fill="#221a28" /><rect x="977.8" y="260.0" width="7.0" height="520.0" fill="#221a28" /><rect x="1068.5" y="260.0" width="7.0" height="520.0" fill="#221a28" /><rect x="1159.2" y="260.0" width="7.0" height="520.0" fill="#221a28" /><rect x="1249.8" y="260.0" width="7.0" height="520.0" fill="#221a28" /><rect x="1340.5" y="260.0" width="7.0" height="520.0" fill="#221a28" /><rect x="1017.6" y="220.0" width="87.0" height="560.0" fill="#221a28" /><circle cx="1118.0425962451845" cy="421.4394564554095" r="23.281753462273628" fill="url(#wl3)"/><ellipse cx="1118.0" cy="421.4" rx="3.4" ry="3.4" fill="#ffe4b0" /><circle cx="1057.8174074394628" cy="312.0990091562271" r="27.239750345237553" fill="url(#wl4)"/><ellipse cx="1057.8" cy="312.1" rx="3.4" ry="3.4" fill="#ffe4b0" /><circle cx="1147.0496317185462" cy="441.5529580786824" r="19.109733367338777" fill="url(#wl5)"/><ellipse cx="1147.0" cy="441.6" rx="3.4" ry="3.4" fill="#ffe4b0" /><circle cx="1143.0117362737656" cy="358.7425072491169" r="22.928202140145004" fill="url(#wl6)"/><ellipse cx="1143.0" cy="358.7" rx="3.4" ry="3.4" fill="#ffe4b0" /><circle cx="812.8284120056778" cy="561.2327378615737" r="23.696422727312893" fill="url(#wl7)"/><ellipse cx="812.8" cy="561.2" rx="3.4" ry="3.4" fill="#ffe4b0" /><circle cx="857.2804284831509" cy="310.8256717771292" r="17.4775450238958" fill="url(#wl8)"/><ellipse cx="857.3" cy="310.8" rx="3.4" ry="3.4" fill="#ffe4b0" /><circle cx="1261.3224961571395" cy="730.2785487473011" r="19.364254004787654" fill="url(#wl9)"/><ellipse cx="1261.3" cy="730.3" rx="3.4" ry="3.4" fill="#ffe4b0" /><rect x="379.0" y="160.0" width="10.0" height="620.0" fill="#160f1c" /><rect x="379.0" y="160.0" width="10.0" height="2.2" fill="#000" opacity="0.5"/><rect x="379.0" y="194.0" width="10.0" height="2.2" fill="#000" opacity="0.5"/><rect x="379.0" y="228.0" width="10.0" height="2.2" fill="#000" opacity="0.5"/><rect x="379.0" y="262.0" width="10.0" height="2.2" fill="#000" opacity="0.5"/><rect x="379.0" y="296.0" width="10.0" height="2.2" fill="#000" opacity="0.5"/><rect x="379.0" y="330.0" width="10.0" height="2.2" fill="#000" opacity="0.5"/><rect x="379.0" y="364.0" width="10.0" height="2.2" fill="#000" opacity="0.5"/><rect x="379.0" y="398.0" width="10.0" height="2.2" fill="#000" opacity="0.5"/><rect x="379.0" y="432.0" width="10.0" height="2.2" fill="#000" opacity="0.5"/><rect x="379.0" y="466.0" width="10.0" height="2.2" fill="#000" opacity="0.5"/><rect x="379.0" y="500.0" width="10.0" height="2.2" fill="#000" opacity="0.5"/><rect x="379.0" y="534.0" width="10.0" height="2.2" fill="#000" opacity="0.5"/><rect x="379.0" y="568.0" width="10.0" height="2.2" fill="#000" opacity="0.5"/><rect x="379.0" y="602.0" width="10.0" height="2.2" fill="#000" opacity="0.5"/><rect x="379.0" y="636.0" width="10.0" height="2.2" fill="#000" opacity="0.5"/><rect x="379.0" y="670.0" width="10.0" height="2.2" fill="#000" opacity="0.5"/><rect x="379.0" y="704.0" width="10.0" height="2.2" fill="#000" opacity="0.5"/><rect x="379.0" y="738.0" width="10.0" height="2.2" fill="#000" opacity="0.5"/><rect x="379.0" y="772.0" width="10.0" height="2.2" fill="#000" opacity="0.5"/><polygon points="384.0,160.0 684.0,176.0 684.0,182.0 384.0,168.0" fill="#160f1c" /><polygon points="384.0,114.0 564.0,170.0 556.0,172.0 381.0,120.0" fill="#160f1c" opacity="0.9"/><rect x="637.0" y="180.0" width="4.0" height="248.0" fill="#160f1c" /><rect x="627.0" y="428.0" width="24.0" height="18.0" fill="#160f1c" /><ellipse cx="384.0" cy="112.0" rx="4.0" ry="4.0" fill="#e06a52" /><rect x="1371.0" y="280.0" width="10.0" height="500.0" fill="#160f1c" /><rect x="1371.0" y="280.0" width="10.0" height="2.2" fill="#000" opacity="0.5"/><rect x="1371.0" y="314.0" width="10.0" height="2.2" fill="#000" opacity="0.5"/><rect x="1371.0" y="348.0" width="10.0" height="2.2" fill="#000" opacity="0.5"/><rect x="1371.0" y="382.0" width="10.0" height="2.2" fill="#000" opacity="0.5"/><rect x="1371.0" y="416.0" width="10.0" height="2.2" fill="#000" opacity="0.5"/><rect x="1371.0" y="450.0" width="10.0" height="2.2" fill="#000" opacity="0.5"/><rect x="1371.0" y="484.0" width="10.0" height="2.2" fill="#000" opacity="0.5"/><rect x="1371.0" y="518.0" width="10.0" height="2.2" fill="#000" opacity="0.5"/><rect x="1371.0" y="552.0" width="10.0" height="2.2" fill="#000" opacity="0.5"/><rect x="1371.0" y="586.0" width="10.0" height="2.2" fill="#000" opacity="0.5"/><rect x="1371.0" y="620.0" width="10.0" height="2.2" fill="#000" opacity="0.5"/><rect x="1371.0" y="654.0" width="10.0" height="2.2" fill="#000" opacity="0.5"/><rect x="1371.0" y="688.0" width="10.0" height="2.2" fill="#000" opacity="0.5"/><rect x="1371.0" y="722.0" width="10.0" height="2.2" fill="#000" opacity="0.5"/><rect x="1371.0" y="756.0" width="10.0" height="2.2" fill="#000" opacity="0.5"/><polygon points="1376.0,280.0 1076.0,296.0 1076.0,302.0 1376.0,288.0" fill="#160f1c" /><polygon points="1376.0,234.0 1196.0,290.0 1204.0,292.0 1373.0,240.0" fill="#160f1c" opacity="0.9"/><rect x="1119.0" y="300.0" width="4.0" height="200.0" fill="#160f1c" /><rect x="1109.0" y="500.0" width="24.0" height="18.0" fill="#160f1c" /><ellipse cx="1376.0" cy="232.0" rx="4.0" ry="4.0" fill="#e06a52" /><rect x="0.0" y="780.0" width="1600.0" height="220.0" fill="url(#gda)" /><rect x="128.0" y="820.0" width="130.0" height="54.0" fill="#1c1524" /><rect x="128.0" y="820.0" width="130.0" height="8.0" fill="#2e2438" /><circle cx="480" cy="830" r="80" fill="url(#sgb)"/><rect x="478.0" y="810.0" width="4.0" height="60.0" fill="#160f1c" /><ellipse cx="480.0" cy="808.0" rx="8.0" ry="6.0" fill="#ffe4b0" /><rect x="0.0" y="0.0" width="1600.0" height="1000.0" fill="url(#vgc)" /><rect x="0" y="0" width="1600" height="1000" filter="url(#grd)" opacity="0.05"/></svg>