<svg xmlns="http://www.w3.org/2000/svg" viewBox="0 0 1600 1000" preserveAspectRatio="xMidYMid slice"><defs><linearGradient id="wl0" x1="0" y1="0" x2="0" y2="1"><stop offset="0" stop-color="#332e3e"/><stop offset="1" stop-color="#211d2b"/></linearGradient><linearGradient id="fl1" x1="0" y1="0" x2="0" y2="1"><stop offset="0" stop-color="#6b543f"/><stop offset="0.55" stop-color="#4a3a30"/><stop offset="1" stop-color="#241a15"/></linearGradient><linearGradient id="vw2" x1="0" y1="0" x2="0" y2="1"><stop offset="0" stop-color="#10142c"/><stop offset="0.45" stop-color="#2c2a4e"/><stop offset="0.78" stop-color="#6e5364"/><stop offset="1" stop-color="#9a6f66"/></linearGradient><radialGradient id="vsun3" cx="0.5" cy="0.5" r="0.5"><stop offset="0" stop-color="#f0b98a" stop-opacity="0.7"/><stop offset="1" stop-color="#f0b98a" stop-opacity="0"/></radialGradient><linearGradient id="sea4" x1="0" y1="0" x2="0" y2="1"><stop offset="0" stop-color="#25294a"/><stop offset="1" stop-color="#0d0f22"/></linearGradient><linearGradient id="vp5" x1="0" y1="0" x2="0" y2="1"><stop offset="0" stop-color="#f3c489" stop-opacity="0.4"/><stop offset="1" stop-color="#f3c489" stop-opacity="0"/></linearGradient><linearGradient id="spl6" x1="0" y1="0" x2="0" y2="1"><stop offset="0" stop-color="#f0b98a" stop-opacity="0.16"/><stop offset="1" stop-color="#f0b98a" stop-opacity="0"/></linearGradient><linearGradient id="sh7" x1="1" y1="0" x2="0" y2="0.4"><stop offset="0" stop-color="#f2c489" stop-opacity="0.2"/><stop offset="1" stop-color="#f2c489" stop-opacity="0"/></linearGradient><linearGradient id="sf8" x1="0" y1="0" x2="0" y2="1"><stop offset="0" stop-color="#6e6152"/><stop offset="1" stop-color="#3d342c"/></linearGradient><radialGradient id="lp9" cx="0.5" cy="0.5" r="0.5"><stop offset="0" stop-color="#f2c489" stop-opacity="0.8"/><stop offset="1" stop-color="#f2c489" stop-opacity="0"/></radialGradient><radialGradient id="pga" cx="0.5" cy="0.5" r="0.5"><stop offset="0" stop-color="#f2c489" stop-opacity="0.5"/><stop offset="1" stop-color="#f2c489" stop-opacity="0"/></radialGradient><radialGradient id="pgb" cx="0.5" cy="0.5" r="0.5"><stop offset="0" stop-color="#f2c489" stop-opacity="0.5"/><stop offset="1" stop-color="#f2c489" stop-opacity="0"/></radialGradient><radialGradient id="vgc" cx="0.5" cy="0.46" r="0.75"><stop offset="0" stop-color="#000000" stop-opacity="0"/><stop offset="0.62" stop-color="#000000" stop-opacity="0"/><stop offset="1" stop-color="#05060c" stop-opacity="0.5"/></radialGradient><filter id="grd" x="0" y="0" width="100%" height="100%"><feTurbulence type="fractalNoise" baseFrequency="0.9" numOctaves="2" stitchTiles="stitch"/><feColorMatrix type="matrix" values="0 0 0 0 0.5 0 0 0 0 0.5 0 0 0 0 0.5 0 0 0 0.6 0"/></filter></defs><rect x="0.0" y="0.0" width="1600.0" height="1000.0" fill="url(#wl0)" /><rect x="192.0" y="60.0" width="1.6" height="580.0" fill="#000" opacity="0.16"/><rect x="480.0" y="60.0" width="1.6" height="580.0" fill="#000" opacity="0.16"/><rect x="768.0" y="60.0" width="1.6" height="580.0" fill="#000" opacity="0.16"/><rect x="0.0" y="660.0" width="1600.0" height="340.0" fill="url(#fl1)" /><rect x="0.0" y="660.0" width="1600.0" height="2.4" fill="#000" opacity="0.4"/><rect x="0.0" y="660.0" width="1600.0" height="1.8" fill="#000000" opacity="0.18"/><rect x="0.0" y="664.2" width="1600.0" height="1.8" fill="#000000" opacity="0.19"/><rect x="0.0" y="676.8" width="1600.0" height="1.8" fill="#000000" opacity="0.21"/><rect x="0.0" y="697.8" width="1600.0" height="1.8" fill="#000000" opacity="0.22"/><rect x="0.0" y="727.2" width="1600.0" height="1.8" fill="#000000" opacity="0.23"/><rect x="0.0" y="764.9" width="1600.0" height="1.8" fill="#000000" opacity="0.25"/><rect x="0.0" y="811.1" width="1600.0" height="1.8" fill="#000000" opacity="0.26"/><rect x="0.0" y="865.7" width="1600.0" height="1.8" fill="#000000" opacity="0.27"/><rect x="0.0" y="928.6" width="1600.0" height="1.8" fill="#000000" opacity="0.29"/><polygon points="160.0,660.0 162.4,660.0 58.0,1000.0 55.0,1000.0" fill="#000" opacity="0.18"/><polygon points="448.0,660.0 450.4,660.0 400.0,1000.0 397.0,1000.0" fill="#000" opacity="0.18"/><polygon points="736.0,660.0 738.4,660.0 742.0,1000.0 739.0,1000.0" fill="#000" opacity="0.18"/><polygon points="1024.0,660.0 1026.4,660.0 1084.0,1000.0 1081.0,1000.0" fill="#000" opacity="0.18"/><polygon points="1312.0,660.0 1314.4,660.0 1426.0,1000.0 1423.0,1000.0" fill="#000" opacity="0.18"/><rect x="832.0" y="100.0" width="640.0" height="554.0" fill="url(#vw2)" /><circle cx="1216" cy="421.32" r="217.60000000000002" fill="url(#vsun3)"/><rect x="-40.0" y="381.8" width="64.2" height="65.7" fill="#252a48" opacity="0.85"/><rect x="38.9" y="415.3" width="149.9" height="32.1" fill="#252a48" opacity="0.85"/><rect x="113.8" y="387.2" width="2.4" height="40.0" fill="#252a48" opacity="0.85"/><rect x="224.6" y="367.7" width="134.5" height="79.8" fill="#252a48" opacity="0.85"/><rect x="291.9" y="338.8" width="2.4" height="40.0" fill="#252a48" opacity="0.85"/><rect x="403.2" y="385.5" width="55.2" height="62.0" fill="#252a48" opacity="0.85"/><rect x="473.1" y="372.5" width="47.7" height="75.0" fill="#252a48" opacity="0.85"/><rect x="497.0" y="352.5" width="2.4" height="40.0" fill="#252a48" opacity="0.85"/><rect x="560.4" y="414.6" width="81.1" height="32.9" fill="#252a48" opacity="0.85"/><rect x="600.9" y="396.4" width="2.4" height="40.0" fill="#252a48" opacity="0.85"/><rect x="691.8" y="379.0" width="124.4" height="68.5" fill="#252a48" opacity="0.85"/><rect x="865.6" y="389.5" width="116.2" height="58.0" fill="#252a48" opacity="0.85"/><rect x="1018.3" y="404.2" width="75.6" height="43.3" fill="#252a48" opacity="0.85"/><rect x="1144.8" y="405.4" width="128.8" height="42.1" fill="#252a48" opacity="0.85"/><rect x="1297.6" y="400.4" width="80.4" height="47.1" fill="#252a48" opacity="0.85"/><rect x="1337.7" y="374.1" width="2.4" height="40.0" fill="#252a48" opacity="0.85"/><rect x="1401.5" y="384.8" width="48.3" height="62.7" fill="#252a48" opacity="0.85"/><rect x="1425.6" y="364.1" width="2.4" height="40.0" fill="#252a48" opacity="0.85"/><rect x="1481.3" y="403.2" width="99.4" height="44.3" fill="#252a48" opacity="0.85"/><rect x="1598.4" y="359.8" width="91.7" height="87.6" fill="#252a48" opacity="0.85"/><rect x="1644.2" y="343.2" width="2.4" height="40.0" fill="#252a48" opacity="0.85"/><rect x="832.0" y="443.5" width="640.0" height="210.5" fill="url(#sea4)" /><rect x="832.0" y="443.5" width="640.0" height="2.2" fill="#f4ead6" opacity="0.4"/><polygon points="1184.0,443.5 1254.4,443.5 1292.8,654.0 1132.8,654.0" fill="url(#vp5)" /><rect x="832.0" y="100.0" width="640.0" height="554.0" fill="#1c2438" opacity="0.12"/><polygon points="883.2,100.0 960.0,100.0 844.8,654.0 819.2,654.0" fill="#ffffff" opacity="0.05"/><rect x="832.0" y="100.0" width="640.0" height="554.0" fill="none" stroke="#14101c" stroke-width="12"/><rect x="1148.0" y="100.0" width="8.0" height="554.0" fill="#14101c" /><rect x="989.5" y="100.0" width="5.0" height="554.0" fill="#14101c" opacity="0.9"/><rect x="1309.5" y="100.0" width="5.0" height="554.0" fill="#14101c" opacity="0.9"/><polygon points="802.0,660.0 1472.0,660.0 1552.0,1000.0 652.0,1000.0" fill="url(#spl6)" /><polygon points="832.0,140.0 832.0,750.0 288.0,1000.0 608.0,1000.0" fill="url(#sh7)" /><ellipse cx="448.0" cy="830.0" rx="384.0" ry="52.0" fill="#332a3e" opacity="0.6"/><ellipse cx="448.0" cy="830.0" rx="384.0" ry="52.0" fill="none" stroke="#4a3f58" stroke-opacity="0.4" stroke-width="2"/><ellipse cx="392.0" cy="675.0" rx="304.0" ry="22.0" fill="#000" opacity="0.45"/><rect x="144" y="535" width="512" height="115" rx="16" fill="url(#sf8)"/><rect x="152" y="465" width="496" height="75" rx="12" fill="#54483d"/><rect x="400.0" y="468.0" width="3.0" height="70.0" fill="#000" opacity="0.25"/><rect x="120" y="500" width="51.2" height="140" rx="10" fill="#4a4036"/><rect x="632" y="500" width="51.2" height="140" rx="10" fill="#4a4036"/><rect x="160.0" y="545.0" width="480.0" height="3.5" fill="#000000" opacity="0.3"/><rect x="192" y="490" width="80" height="50" rx="8" fill="#8a7358"/><rect x="544" y="490" width="80" height="50" rx="8" fill="#2e2a3c"/><ellipse cx="496.0" cy="770.0" rx="96.0" ry="18.0" fill="#000" opacity="0.45"/><rect x="492.0" y="710.0" width="8.0" height="55.0" fill="#14100c" /><ellipse cx="496.0" cy="710.0" rx="92.0" ry="17.0" fill="#4a3a2c" /><ellipse cx="496.0" cy="705.0" rx="92.0" ry="16.0" fill="#5c4936" /><ellipse cx="448.0" cy="700.0" rx="16.0" ry="5.0" fill="#1c1712" /><ellipse cx="748.8" cy="665.0" rx="34.0" ry="8.0" fill="#000" opacity="0.45"/><rect x="744.0" y="360.0" width="4.0" height="300.0" fill="#0f0c16" /><circle cx="747.2" cy="345" r="80" fill="url(#lp9)"/><polygon points="721.2,365.0 773.2,365.0 765.2,325.0 729.2,325.0" fill="#f6d3a0" opacity="0.95"/><ellipse cx="83.2" cy="660.0" rx="40.0" ry="9.0" fill="#000" opacity="0.45"/><polygon points="56.0,585.0 110.4,585.0 100.8,655.0 65.6,655.0" fill="#241b13" /><ellipse cx="83.2" cy="520.0" rx="44.0" ry="66.0" fill="#13200f" opacity="0.95"/><ellipse cx="60.8" cy="545.0" rx="26.0" ry="44.0" fill="#0d1a0c" opacity="0.9"/><rect x="224.0" y="0.0" width="2.0" height="160.0" fill="#0f0c16" /><circle cx="225.00000000000003" cy="168" r="52" fill="url(#pga)"/><polygon points="211.0,175.0 239.0,175.0 233.0,150.0 217.0,150.0" fill="#f6d3a0" opacity="0.92"/><rect x="352.0" y="0.0" width="2.0" height="160.0" fill="#0f0c16" /><circle cx="353" cy="168" r="52" fill="url(#pgb)"/><polygon points="339.0,175.0 367.0,175.0 361.0,150.0 345.0,150.0" fill="#f6d3a0" opacity="0.92"/><rect x="0.0" y="0.0" width="1600.0" height="1000.0" fill="url(#vgc)" /><rect x="0" y="0" width="1600" height="1000" filter="url(#grd)" opacity="0.045"/></svg>