<svg xmlns="http://www.w3.org/2000/svg" viewBox="0 0 1600 1000" preserveAspectRatio="xMidYMid slice"><defs><linearGradient id="wl0" x1="0" y1="0" x2="0" y2="1"><stop offset="0" stop-color="#332e3e"/><stop offset="1" stop-color="#211d2b"/></linearGradient><linearGradient id="fl1" x1="0" y1="0" x2="0" y2="1"><stop offset="0" stop-color="#6b543f"/><stop offset="0.55" stop-color="#4a3a30"/><stop offset="1" stop-color="#241a15"/></linearGradient><linearGradient id="vw2" x1="0" y1="0" x2="0" y2="1"><stop offset="0" stop-color="#10142c"/><stop offset="0.45" stop-color="#2c2a4e"/><stop offset="0.78" stop-color="#6e5364"/><stop offset="1" stop-color="#9a6f66"/></linearGradient><radialGradient id="vsun3" cx="0.5" cy="0.5" r="0.5"><stop offset="0" stop-color="#f0b98a" stop-opacity="0.7"/><stop offset="1" stop-color="#f0b98a" stop-opacity="0"/></radialGradient><linearGradient id="sea4" x1="0" y1="0" x2="0" y2="1"><stop offset="0" stop-color="#25294a"/><stop offset="1" stop-color="#0d0f22"/></linearGradient><linearGradient id="vp5" x1="0" y1="0" x2="0" y2="1"><stop offset="0" stop-color="#f3c489" stop-opacity="0.4"/><stop offset="1" stop-color="#f3c489" stop-opacity="0"/></linearGradient><linearGradient id="spl6" x1="0" y1="0" x2="0" y2="1"><stop offset="0" stop-color="#f0b98a" stop-opacity="0.16"/><stop offset="1" stop-color="#f0b98a" stop-opacity="0"/></linearGradient><linearGradient id="sh7" x1="1" y1="0" x2="0" y2="0.4"><stop offset="0" stop-color="#f2c489" stop-opacity="0.2"/><stop offset="1" stop-color="#f2c489" stop-opacity="0"/></linearGradient><linearGradient id="is8" x1="0" y1="0" x2="0" y2="1"><stop offset="0" stop-color="#d6cfc0"/><stop offset="1" stop-color="#8a8375"/></linearGradient><radialGradient id="kg9" cx="0.5" cy="0.5" r="0.5"><stop offset="0" stop-color="#f2c489" stop-opacity="0.6"/><stop offset="1" stop-color="#f2c489" stop-opacity="0"/></radialGradient><radialGradient id="kga" cx="0.5" cy="0.5" r="0.5"><stop offset="0" stop-color="#f2c489" stop-opacity="0.6"/><stop offset="1" stop-color="#f2c489" stop-opacity="0"/></radialGradient><radialGradient id="kgb" cx="0.5" cy="0.5" r="0.5"><stop offset="0" stop-color="#f2c489" stop-opacity="0.6"/><stop offset="1" stop-color="#f2c489" stop-opacity="0"/></radialGradient><radialGradient id="vgc" cx="0.5" cy="0.46" r="0.75"><stop offset="0" stop-color="#000000" stop-opacity="0"/><stop offset="0.62" stop-color="#000000" stop-opacity="0"/><stop offset="1" stop-color="#05060c" stop-opacity="0.5"/></radialGradient><filter id="grd" x="0" y="0" width="100%" height="100%"><feTurbulence type="fractalNoise" baseFrequency="0.9" numOctaves="2" stitchTiles="stitch"/><feColorMatrix type="matrix" values="0 0 0 0 0.5 0 0 0 0 0.5 0 0 0 0 0.5 0 0 0 0.6 0"/></filter></defs><rect x="0.0" y="0.0" width="1600.0" height="1000.0" fill="url(#wl0)" /><rect x="192.0" y="60.0" width="1.6" height="580.0" fill="#000" opacity="0.16"/><rect x="480.0" y="60.0" width="1.6" height="580.0" fill="#000" opacity="0.16"/><rect x="768.0" y="60.0" width="1.6" height="580.0" fill="#000" opacity="0.16"/><rect x="0.0" y="660.0" width="1600.0" height="340.0" fill="url(#fl1)" /><rect x="0.0" y="660.0" width="1600.0" height="2.4" fill="#000" opacity="0.4"/><rect x="0.0" y="660.0" width="1600.0" height="1.8" fill="#000000" opacity="0.18"/><rect x="0.0" y="664.2" width="1600.0" height="1.8" fill="#000000" opacity="0.19"/><rect x="0.0" y="676.8" width="1600.0" height="1.8" fill="#000000" opacity="0.21"/><rect x="0.0" y="697.8" width="1600.0" height="1.8" fill="#000000" opacity="0.22"/><rect x="0.0" y="727.2" width="1600.0" height="1.8" fill="#000000" opacity="0.23"/><rect x="0.0" y="764.9" width="1600.0" height="1.8" fill="#000000" opacity="0.25"/><rect x="0.0" y="811.1" width="1600.0" height="1.8" fill="#000000" opacity="0.26"/><rect x="0.0" y="865.7" width="1600.0" height="1.8" fill="#000000" opacity="0.27"/><rect x="0.0" y="928.6" width="1600.0" height="1.8" fill="#000000" opacity="0.29"/><polygon points="160.0,660.0 162.4,660.0 58.0,1000.0 55.0,1000.0" fill="#000" opacity="0.18"/><polygon points="448.0,660.0 450.4,660.0 400.0,1000.0 397.0,1000.0" fill="#000" opacity="0.18"/><polygon points="736.0,660.0 738.4,660.0 742.0,1000.0 739.0,1000.0" fill="#000" opacity="0.18"/><polygon points="1024.0,660.0 1026.4,660.0 1084.0,1000.0 1081.0,1000.0" fill="#000" opacity="0.18"/><polygon points="1312.0,660.0 1314.4,660.0 1426.0,1000.0 1423.0,1000.0" fill="#000" opacity="0.18"/><rect x="832.0" y="100.0" width="640.0" height="554.0" fill="url(#vw2)" /><circle cx="1216" cy="421.32" r="217.60000000000002" fill="url(#vsun3)"/><rect x="-40.0" y="393.1" width="104.6" height="54.4" fill="#252a48" opacity="0.85"/><rect x="83.5" y="404.9" width="86.0" height="42.6" fill="#252a48" opacity="0.85"/><rect x="223.2" y="416.9" width="115.9" height="30.6" fill="#252a48" opacity="0.85"/><rect x="281.1" y="390.3" width="2.4" height="40.0" fill="#252a48" opacity="0.85"/><rect x="361.2" y="405.9" width="50.1" height="41.6" fill="#252a48" opacity="0.85"/><rect x="386.3" y="381.6" width="2.4" height="40.0" fill="#252a48" opacity="0.85"/><rect x="439.4" y="373.2" width="62.6" height="74.3" fill="#252a48" opacity="0.85"/><rect x="539.2" y="387.9" width="127.1" height="59.6" fill="#252a48" opacity="0.85"/><rect x="602.7" y="359.6" width="2.4" height="40.0" fill="#252a48" opacity="0.85"/><rect x="685.7" y="382.7" width="115.2" height="64.8" fill="#252a48" opacity="0.85"/><rect x="855.8" y="415.4" width="57.6" height="32.1" fill="#252a48" opacity="0.85"/><rect x="884.6" y="400.7" width="2.4" height="40.0" fill="#252a48" opacity="0.85"/><rect x="960.6" y="391.4" width="141.8" height="56.0" fill="#252a48" opacity="0.85"/><rect x="1031.5" y="372.9" width="2.4" height="40.0" fill="#252a48" opacity="0.85"/><rect x="1147.7" y="375.1" width="101.0" height="72.4" fill="#252a48" opacity="0.85"/><rect x="1304.1" y="362.5" width="96.3" height="85.0" fill="#252a48" opacity="0.85"/><rect x="1453.7" y="355.4" width="52.4" height="92.1" fill="#252a48" opacity="0.85"/><rect x="1515.2" y="407.8" width="87.0" height="39.7" fill="#252a48" opacity="0.85"/><rect x="1558.7" y="395.7" width="2.4" height="40.0" fill="#252a48" opacity="0.85"/><rect x="1631.8" y="397.0" width="110.8" height="50.5" fill="#252a48" opacity="0.85"/><rect x="832.0" y="443.5" width="640.0" height="210.5" fill="url(#sea4)" /><rect x="832.0" y="443.5" width="640.0" height="2.2" fill="#f4ead6" opacity="0.4"/><polygon points="1184.0,443.5 1254.4,443.5 1292.8,654.0 1132.8,654.0" fill="url(#vp5)" /><rect x="832.0" y="100.0" width="640.0" height="554.0" fill="#1c2438" opacity="0.12"/><polygon points="883.2,100.0 960.0,100.0 844.8,654.0 819.2,654.0" fill="#ffffff" opacity="0.05"/><rect x="832.0" y="100.0" width="640.0" height="554.0" fill="none" stroke="#14101c" stroke-width="12"/><rect x="1148.0" y="100.0" width="8.0" height="554.0" fill="#14101c" /><rect x="989.5" y="100.0" width="5.0" height="554.0" fill="#14101c" opacity="0.9"/><rect x="1309.5" y="100.0" width="5.0" height="554.0" fill="#14101c" opacity="0.9"/><polygon points="802.0,660.0 1472.0,660.0 1552.0,1000.0 652.0,1000.0" fill="url(#spl6)" /><polygon points="832.0,140.0 832.0,750.0 288.0,1000.0 608.0,1000.0" fill="url(#sh7)" /><ellipse cx="432.0" cy="845.0" rx="320.0" ry="22.0" fill="#000000" opacity="0.45"/><rect x="176.0" y="655.0" width="512.0" height="175.0" fill="#2b2433" /><rect x="176.0" y="655.0" width="512.0" height="5.0" fill="#000" opacity="0.4"/><rect x="152" y="605" width="560" height="52" rx="7" fill="url(#is8)"/><ellipse cx="320.0" cy="605.0" rx="26.0" ry="8.0" fill="#3d3226" /><rect x="496.0" y="596.0" width="60.0" height="8.0" fill="#4a3a2a" rx="3"/><path d="M 672 605 v -50 q 0 -14 -14 -14 h -12" stroke="#171221" stroke-width="7" fill="none" stroke-linecap="round"/><rect x="0.0" y="240.0" width="160.0" height="420.0" fill="#241f2e" /><rect x="6.4" y="250.0" width="144.0" height="400.0" fill="#332c40" /><rect x="0.0" y="345.0" width="160.0" height="2.0" fill="#000" opacity="0.3"/><rect x="0.0" y="450.0" width="160.0" height="2.0" fill="#000" opacity="0.3"/><rect x="0.0" y="555.0" width="160.0" height="2.0" fill="#000" opacity="0.3"/><rect x="304.0" y="0.0" width="2.0" height="300.0" fill="#0f0c16" /><circle cx="305" cy="310" r="62" fill="url(#kg9)"/><polygon points="292.0,318.0 318.0,318.0 312.0,290.0 298.0,290.0" fill="#f6d3a0" opacity="0.95"/><rect x="432.0" y="0.0" width="2.0" height="300.0" fill="#0f0c16" /><circle cx="433" cy="310" r="62" fill="url(#kga)"/><polygon points="420.0,318.0 446.0,318.0 440.0,290.0 426.0,290.0" fill="#f6d3a0" opacity="0.95"/><rect x="560.0" y="0.0" width="2.0" height="300.0" fill="#0f0c16" /><circle cx="561" cy="310" r="62" fill="url(#kgb)"/><polygon points="548.0,318.0 574.0,318.0 568.0,290.0 554.0,290.0" fill="#f6d3a0" opacity="0.95"/><ellipse cx="278.0" cy="855.0" rx="30.0" ry="7.0" fill="#000" opacity="0.4"/><rect x="256" y="730" width="46" height="11" rx="5" fill="#54483a"/><rect x="275.0" y="740.0" width="7.0" height="110.0" fill="#241e18" /><ellipse cx="278.5" cy="850.0" rx="22.0" ry="4.5" fill="#241e18" /><ellipse cx="414.0" cy="855.0" rx="30.0" ry="7.0" fill="#000" opacity="0.4"/><rect x="392" y="730" width="46" height="11" rx="5" fill="#54483a"/><rect x="411.0" y="740.0" width="7.0" height="110.0" fill="#241e18" /><ellipse cx="414.5" cy="850.0" rx="22.0" ry="4.5" fill="#241e18" /><ellipse cx="550.0" cy="855.0" rx="30.0" ry="7.0" fill="#000" opacity="0.4"/><rect x="528" y="730" width="46" height="11" rx="5" fill="#54483a"/><rect x="547.0" y="740.0" width="7.0" height="110.0" fill="#241e18" /><ellipse cx="550.5" cy="850.0" rx="22.0" ry="4.5" fill="#241e18" /><rect x="0.0" y="0.0" width="1600.0" height="1000.0" fill="url(#vgc)" /><rect x="0" y="0" width="1600" height="1000" filter="url(#grd)" opacity="0.045"/></svg>