<svg xmlns="http://www.w3.org/2000/svg" viewBox="0 0 1600 1000" preserveAspectRatio="xMidYMid slice"><defs><linearGradient id="sky0" x1="0" y1="0" x2="0" y2="1"><stop offset="0" stop-color="#10142c"/><stop offset="0.45" stop-color="#2c2a4e"/><stop offset="0.78" stop-color="#6e5364"/><stop offset="1" stop-color="#9a6f66"/></linearGradient><radialGradient id="sun1" cx="0.5" cy="0.5" r="0.5"><stop offset="0" stop-color="#f0b98a" stop-opacity="0.5"/><stop offset="1" stop-color="#f0b98a" stop-opacity="0"/></radialGradient><linearGradient id="cs2" x1="0" y1="0" x2="0" y2="1"><stop offset="0" stop-color="#25294a"/><stop offset="1" stop-color="#0d0f22"/></linearGradient><linearGradient id="cp3" x1="0" y1="0" x2="0" y2="1"><stop offset="0" stop-color="#f3c489" stop-opacity="0.35"/><stop offset="1" stop-color="#f3c489" stop-opacity="0"/></linearGradient><linearGradient id="hz4" x1="0" y1="0" x2="0" y2="1"><stop offset="0" stop-color="#383a5c" stop-opacity="0"/><stop offset="0.55" stop-color="#383a5c" stop-opacity="0.4"/><stop offset="1" stop-color="#383a5c" stop-opacity="0"/></linearGradient><radialGradient id="pl5" cx="0.5" cy="0.5" r="0.5"><stop offset="0" stop-color="#f3c489" stop-opacity="0.6"/><stop offset="1" stop-color="#f3c489" stop-opacity="0"/></radialGradient><radialGradient id="pl6" cx="0.5" cy="0.5" r="0.5"><stop offset="0" stop-color="#f3c489" stop-opacity="0.6"/><stop offset="1" stop-color="#f3c489" stop-opacity="0"/></radialGradient><radialGradient id="pl7" cx="0.5" cy="0.5" r="0.5"><stop offset="0" stop-color="#f3c489" stop-opacity="0.6"/><stop offset="1" stop-color="#f3c489" stop-opacity="0"/></radialGradient><radialGradient id="pl8" cx="0.5" cy="0.5" r="0.5"><stop offset="0" stop-color="#f3c489" stop-opacity="0.6"/><stop offset="1" stop-color="#f3c489" stop-opacity="0"/></radialGradient><radialGradient id="pl9" cx="0.5" cy="0.5" r="0.5"><stop offset="0" stop-color="#f3c489" stop-opacity="0.6"/><stop offset="1" stop-color="#f3c489" stop-opacity="0"/></radialGradient><radialGradient id="pla" cx="0.5" cy="0.5" r="0.5"><stop offset="0" stop-color="#f3c489" stop-opacity="0.6"/><stop offset="1" stop-color="#f3c489" stop-opacity="0"/></radialGradient><radialGradient id="plb" cx="0.5" cy="0.5" r="0.5"><stop offset="0" stop-color="#f3c489" stop-opacity="0.6"/><stop offset="1" stop-color="#f3c489" stop-opacity="0"/></radialGradient><radialGradient id="plc" cx="0.5" cy="0.5" r="0.5"><stop offset="0" stop-color="#f3c489" stop-opacity="0.6"/><stop offset="1" stop-color="#f3c489" stop-opacity="0"/></radialGradient><radialGradient id="pld" cx="0.5" cy="0.5" r="0.5"><stop offset="0" stop-color="#f3c489" stop-opacity="0.6"/><stop offset="1" stop-color="#f3c489" stop-opacity="0"/></radialGradient><radialGradient id="vge" cx="0.5" cy="0.46" r="0.75"><stop offset="0" stop-color="#000000" stop-opacity="0"/><stop offset="0.62" stop-color="#000000" stop-opacity="0"/><stop offset="1" stop-color="#05060c" stop-opacity="0.52"/></radialGradient><filter id="grf" x="0" y="0" width="100%" height="100%"><feTurbulence type="fractalNoise" baseFrequency="0.9" numOctaves="2" stitchTiles="stitch"/><feColorMatrix type="matrix" values="0 0 0 0 0.5 0 0 0 0 0.5 0 0 0 0 0.5 0 0 0 0.6 0"/></filter></defs><rect x="0.0" y="0.0" width="1600.0" height="1000.0" fill="url(#sky0)" /><circle cx="1120" cy="550" r="640" fill="url(#sun1)"/><rect x="0.0" y="600.0" width="1600.0" height="400.0" fill="url(#cs2)" /><rect x="0.0" y="600.0" width="1600.0" height="2.4" fill="#f4ead6" opacity="0.35"/><polygon points="1056.0,600.0 1184.0,600.0 1312.0,1000.0 928.0,1000.0" fill="url(#cp3)" /><polygon points="0.0,1000.0 0.0,300.0 224.0,340.0 544.0,480.0 832.0,580.0 960.0,600.0 640.0,1000.0" fill="#161226" /><rect x="20.4" y="315.5" width="60.6" height="37.8" fill="#241e36" /><rect x="27.8" y="322.5" width="19.5" height="9.8" fill="#f3c489" opacity="0.57"/><rect x="27.8" y="336.5" width="19.5" height="9.8" fill="#181c34" opacity="0.69"/><rect x="54.1" y="322.5" width="19.5" height="9.8" fill="#f3c489" opacity="0.64"/><rect x="54.1" y="336.5" width="19.5" height="9.8" fill="#f3c489" opacity="0.93"/><rect x="67.4" y="338.8" width="56.0" height="47.5" fill="#2b2440" /><rect x="74.5" y="349.5" width="17.8" height="26.3" fill="#f3c489" opacity="0.92"/><rect x="98.5" y="349.5" width="17.8" height="26.3" fill="#f3c489" opacity="0.61"/><rect x="121.7" y="349.0" width="74.4" height="33.9" fill="#1d1830" /><rect x="128.6" y="355.2" width="16.4" height="5.6" fill="#f3c489" opacity="0.82"/><rect x="128.6" y="363.2" width="16.4" height="5.6" fill="#f3c489" opacity="0.63"/><rect x="128.6" y="371.2" width="16.4" height="5.6" fill="#181c34" opacity="0.67"/><rect x="150.7" y="355.2" width="16.4" height="5.6" fill="#181c34" opacity="0.84"/><rect x="150.7" y="363.2" width="16.4" height="5.6" fill="#181c34" opacity="0.52"/><rect x="150.7" y="371.2" width="16.4" height="5.6" fill="#f3c489" opacity="0.69"/><rect x="172.8" y="355.2" width="16.4" height="5.6" fill="#f3c489" opacity="0.58"/><rect x="172.8" y="363.2" width="16.4" height="5.6" fill="#f3c489" opacity="0.62"/><rect x="172.8" y="371.2" width="16.4" height="5.6" fill="#f3c489" opacity="0.97"/><rect x="183.9" y="361.4" width="61.4" height="42.7" fill="#1d1830" /><rect x="190.2" y="368.9" width="13.2" height="11.5" fill="#181c34" opacity="0.77"/><rect x="190.2" y="385.2" width="13.2" height="11.5" fill="#f3c489" opacity="0.68"/><rect x="208.0" y="368.9" width="13.2" height="11.5" fill="#f3c489" opacity="0.98"/><rect x="208.0" y="385.2" width="13.2" height="11.5" fill="#181c34" opacity="0.63"/><rect x="225.8" y="368.9" width="13.2" height="11.5" fill="#f3c489" opacity="0.81"/><rect x="225.8" y="385.2" width="13.2" height="11.5" fill="#f3c489" opacity="0.96"/><rect x="216.5" y="403.3" width="46.6" height="35.4" fill="#1d1830" /><rect x="221.7" y="412.1" width="7.1" height="17.8" fill="#f3c489" opacity="0.56"/><rect x="231.4" y="412.1" width="7.1" height="17.8" fill="#f3c489" opacity="0.55"/><rect x="241.0" y="412.1" width="7.1" height="17.8" fill="#f3c489" opacity="0.95"/><rect x="250.6" y="412.1" width="7.1" height="17.8" fill="#f3c489" opacity="0.64"/><rect x="263.8" y="400.8" width="43.0" height="42.5" fill="#2b2440" /><rect x="270.1" y="410.6" width="13.0" height="22.8" fill="#f3c489" opacity="0.84"/><rect x="287.6" y="410.6" width="13.0" height="22.8" fill="#181c34" opacity="0.64"/><rect x="349.7" y="393.1" width="60.4" height="53.0" fill="#241e36" /><rect x="355.4" y="400.2" width="9.7" height="10.0" fill="#181c34" opacity="0.67"/><rect x="355.4" y="414.5" width="9.7" height="10.0" fill="#f3c489" opacity="0.99"/><rect x="355.4" y="428.9" width="9.7" height="10.0" fill="#f3c489" opacity="0.64"/><rect x="368.5" y="400.2" width="9.7" height="10.0" fill="#181c34" opacity="0.84"/><rect x="368.5" y="414.5" width="9.7" height="10.0" fill="#181c34" opacity="0.78"/><rect x="368.5" y="428.9" width="9.7" height="10.0" fill="#f3c489" opacity="0.73"/><rect x="381.6" y="400.2" width="9.7" height="10.0" fill="#f3c489" opacity="0.73"/><rect x="381.6" y="414.5" width="9.7" height="10.0" fill="#f3c489" opacity="0.62"/><rect x="381.6" y="428.9" width="9.7" height="10.0" fill="#181c34" opacity="0.84"/><rect x="394.7" y="400.2" width="9.7" height="10.0" fill="#181c34" opacity="0.84"/><rect x="394.7" y="414.5" width="9.7" height="10.0" fill="#181c34" opacity="0.72"/><rect x="394.7" y="428.9" width="9.7" height="10.0" fill="#f3c489" opacity="0.50"/><rect x="391.8" y="448.9" width="68.5" height="36.6" fill="#1d1830" /><rect x="399.8" y="457.8" width="22.4" height="18.6" fill="#181c34" opacity="0.83"/><rect x="430.0" y="457.8" width="22.4" height="18.6" fill="#181c34" opacity="0.50"/><rect x="440.8" y="452.2" width="62.6" height="41.3" fill="#241e36" /><rect x="446.6" y="459.6" width="10.1" height="11.0" fill="#f3c489" opacity="0.75"/><rect x="446.6" y="475.2" width="10.1" height="11.0" fill="#f3c489" opacity="0.50"/><rect x="460.3" y="459.6" width="10.1" height="11.0" fill="#181c34" opacity="0.54"/><rect x="460.3" y="475.2" width="10.1" height="11.0" fill="#181c34" opacity="0.58"/><rect x="473.9" y="459.6" width="10.1" height="11.0" fill="#181c34" opacity="0.80"/><rect x="473.9" y="475.2" width="10.1" height="11.0" fill="#181c34" opacity="0.84"/><rect x="487.6" y="459.6" width="10.1" height="11.0" fill="#181c34" opacity="0.84"/><rect x="487.6" y="475.2" width="10.1" height="11.0" fill="#181c34" opacity="0.50"/><rect x="496.5" y="449.5" width="81.7" height="56.5" fill="#241e36" /><rect x="502.9" y="456.9" width="13.6" height="10.9" fill="#181c34" opacity="0.65"/><rect x="502.9" y="472.4" width="13.6" height="10.9" fill="#f3c489" opacity="0.65"/><rect x="502.9" y="487.9" width="13.6" height="10.9" fill="#f3c489" opacity="0.98"/><rect x="521.4" y="456.9" width="13.6" height="10.9" fill="#181c34" opacity="0.78"/><rect x="521.4" y="472.4" width="13.6" height="10.9" fill="#f3c489" opacity="0.74"/><rect x="521.4" y="487.9" width="13.6" height="10.9" fill="#f3c489" opacity="0.87"/><rect x="539.8" y="456.9" width="13.6" height="10.9" fill="#f3c489" opacity="0.64"/><rect x="539.8" y="472.4" width="13.6" height="10.9" fill="#181c34" opacity="0.60"/><rect x="539.8" y="487.9" width="13.6" height="10.9" fill="#f3c489" opacity="0.80"/><rect x="558.2" y="456.9" width="13.6" height="10.9" fill="#181c34" opacity="0.71"/><rect x="558.2" y="472.4" width="13.6" height="10.9" fill="#181c34" opacity="0.86"/><rect x="558.2" y="487.9" width="13.6" height="10.9" fill="#181c34" opacity="0.60"/><rect x="534.9" y="485.2" width="64.8" height="32.7" fill="#241e36" /><rect x="542.6" y="493.6" width="21.0" height="15.9" fill="#f3c489" opacity="0.64"/><rect x="570.9" y="493.6" width="21.0" height="15.9" fill="#f3c489" opacity="0.71"/><rect x="584.5" y="499.7" width="67.1" height="41.3" fill="#1d1830" /><rect x="590.4" y="507.0" width="10.9" height="11.0" fill="#f3c489" opacity="0.90"/><rect x="590.4" y="522.7" width="10.9" height="11.0" fill="#181c34" opacity="0.87"/><rect x="605.2" y="507.0" width="10.9" height="11.0" fill="#f3c489" opacity="0.55"/><rect x="605.2" y="522.7" width="10.9" height="11.0" fill="#f3c489" opacity="0.78"/><rect x="620.0" y="507.0" width="10.9" height="11.0" fill="#181c34" opacity="0.53"/><rect x="620.0" y="522.7" width="10.9" height="11.0" fill="#181c34" opacity="0.61"/><rect x="634.7" y="507.0" width="10.9" height="11.0" fill="#f3c489" opacity="0.82"/><rect x="634.7" y="522.7" width="10.9" height="11.0" fill="#181c34" opacity="0.78"/><rect x="623.7" y="510.3" width="44.6" height="58.7" fill="#2b2440" /><rect x="630.1" y="517.7" width="13.5" height="11.4" fill="#181c34" opacity="0.82"/><rect x="630.1" y="533.9" width="13.5" height="11.4" fill="#f3c489" opacity="0.56"/><rect x="630.1" y="550.2" width="13.5" height="11.4" fill="#f3c489" opacity="0.69"/><rect x="648.4" y="517.7" width="13.5" height="11.4" fill="#f3c489" opacity="0.58"/><rect x="648.4" y="533.9" width="13.5" height="11.4" fill="#181c34" opacity="0.56"/><rect x="648.4" y="550.2" width="13.5" height="11.4" fill="#181c34" opacity="0.68"/><rect x="672.2" y="515.4" width="87.5" height="59.0" fill="#2b2440" /><rect x="679.7" y="524.1" width="19.6" height="17.2" fill="#181c34" opacity="0.72"/><rect x="679.7" y="548.5" width="19.6" height="17.2" fill="#181c34" opacity="0.55"/><rect x="706.2" y="524.1" width="19.6" height="17.2" fill="#f3c489" opacity="0.73"/><rect x="706.2" y="548.5" width="19.6" height="17.2" fill="#181c34" opacity="0.61"/><rect x="732.7" y="524.1" width="19.6" height="17.2" fill="#181c34" opacity="0.56"/><rect x="732.7" y="548.5" width="19.6" height="17.2" fill="#181c34" opacity="0.87"/><rect x="728.8" y="528.1" width="63.0" height="53.1" fill="#1d1830" /><rect x="735.2" y="536.3" width="13.6" height="15.1" fill="#f3c489" opacity="0.69"/><rect x="735.2" y="557.8" width="13.6" height="15.1" fill="#181c34" opacity="0.71"/><rect x="753.5" y="536.3" width="13.6" height="15.1" fill="#181c34" opacity="0.85"/><rect x="753.5" y="557.8" width="13.6" height="15.1" fill="#181c34" opacity="0.70"/><rect x="771.8" y="536.3" width="13.6" height="15.1" fill="#f3c489" opacity="0.70"/><rect x="771.8" y="557.8" width="13.6" height="15.1" fill="#181c34" opacity="0.54"/><rect x="769.2" y="543.8" width="75.3" height="55.8" fill="#1d1830" /><rect x="777.6" y="551.1" width="24.9" height="10.7" fill="#f3c489" opacity="0.85"/><rect x="777.6" y="566.4" width="24.9" height="10.7" fill="#f3c489" opacity="0.97"/><rect x="777.6" y="581.7" width="24.9" height="10.7" fill="#181c34" opacity="0.71"/><rect x="811.2" y="551.1" width="24.9" height="10.7" fill="#f3c489" opacity="0.82"/><rect x="811.2" y="566.4" width="24.9" height="10.7" fill="#181c34" opacity="0.68"/><rect x="811.2" y="581.7" width="24.9" height="10.7" fill="#181c34" opacity="0.73"/><rect x="0.0" y="500.0" width="1600.0" height="120.0" fill="url(#hz4)" /><circle cx="80" cy="680" r="26" fill="url(#pl5)"/><ellipse cx="80.0" cy="680.0" rx="2.6" ry="2.6" fill="#ffe4b0" /><circle cx="176" cy="688" r="26" fill="url(#pl6)"/><ellipse cx="176.0" cy="688.0" rx="2.6" ry="2.6" fill="#ffe4b0" /><circle cx="272" cy="696.0000000000001" r="26" fill="url(#pl7)"/><ellipse cx="272.0" cy="696.0" rx="2.6" ry="2.6" fill="#ffe4b0" /><circle cx="368" cy="704.0000000000001" r="26" fill="url(#pl8)"/><ellipse cx="368.0" cy="704.0" rx="2.6" ry="2.6" fill="#ffe4b0" /><circle cx="464" cy="712.0000000000001" r="26" fill="url(#pl9)"/><ellipse cx="464.0" cy="712.0" rx="2.6" ry="2.6" fill="#ffe4b0" /><circle cx="560" cy="720.0000000000001" r="26" fill="url(#pla)"/><ellipse cx="560.0" cy="720.0" rx="2.6" ry="2.6" fill="#ffe4b0" /><circle cx="656" cy="728.0000000000001" r="26" fill="url(#plb)"/><ellipse cx="656.0" cy="728.0" rx="2.6" ry="2.6" fill="#ffe4b0" /><circle cx="752" cy="736.0000000000001" r="26" fill="url(#plc)"/><ellipse cx="752.0" cy="736.0" rx="2.6" ry="2.6" fill="#ffe4b0" /><circle cx="848" cy="744" r="26" fill="url(#pld)"/><ellipse cx="848.0" cy="744.0" rx="2.6" ry="2.6" fill="#ffe4b0" /><rect x="963.6" y="963.7" width="80.2" height="1.5" fill="#000" opacity="0.10"/><rect x="308.5" y="746.5" width="35.0" height="1.5" fill="#000" opacity="0.09"/><rect x="1134.8" y="689.9" width="45.5" height="1.5" fill="#000" opacity="0.11"/><rect x="1114.2" y="699.1" width="60.3" height="1.5" fill="#000" opacity="0.12"/><rect x="917.0" y="664.0" width="56.3" height="1.5" fill="#000" opacity="0.07"/><rect x="783.8" y="741.6" width="111.7" height="1.5" fill="#000" opacity="0.13"/><rect x="276.0" y="869.5" width="105.1" height="1.5" fill="#000" opacity="0.14"/><rect x="795.6" y="890.9" width="82.9" height="1.5" fill="#000" opacity="0.13"/><rect x="88.2" y="667.9" width="129.4" height="1.5" fill="#000" opacity="0.10"/><rect x="127.6" y="977.4" width="89.6" height="1.5" fill="#000" opacity="0.05"/><rect x="713.9" y="731.7" width="78.8" height="1.5" fill="#000" opacity="0.13"/><rect x="392.3" y="649.2" width="97.2" height="1.5" fill="#000" opacity="0.05"/><rect x="1114.1" y="633.9" width="84.1" height="1.5" fill="#000" opacity="0.11"/><rect x="1189.7" y="944.7" width="68.6" height="1.5" fill="#000" opacity="0.06"/><rect x="492.5" y="732.6" width="30.4" height="1.5" fill="#000" opacity="0.06"/><rect x="947.9" y="783.9" width="70.3" height="1.5" fill="#000" opacity="0.10"/><rect x="662.7" y="780.4" width="139.3" height="1.5" fill="#000" opacity="0.09"/><rect x="660.3" y="805.7" width="32.7" height="1.5" fill="#000" opacity="0.07"/><rect x="538.8" y="830.4" width="101.4" height="1.5" fill="#000" opacity="0.10"/><rect x="720.7" y="776.7" width="77.6" height="1.5" fill="#000" opacity="0.13"/><rect x="0.0" y="0.0" width="1600.0" height="1000.0" fill="url(#vge)" /><rect x="0" y="0" width="1600" height="1000" filter="url(#grf)" opacity="0.05"/></svg>