<svg xmlns="http://www.w3.org/2000/svg" viewBox="0 0 1600 1000" preserveAspectRatio="xMidYMid slice"><defs><linearGradient id="wl0" x1="0" y1="0" x2="0" y2="1"><stop offset="0" stop-color="#332e3e"/><stop offset="1" stop-color="#211d2b"/></linearGradient><linearGradient id="fl1" x1="0" y1="0" x2="0" y2="1"><stop offset="0" stop-color="#6b543f"/><stop offset="0.55" stop-color="#4a3a30"/><stop offset="1" stop-color="#241a15"/></linearGradient><linearGradient id="vw2" x1="0" y1="0" x2="0" y2="1"><stop offset="0" stop-color="#8fa7bd"/><stop offset="0.55" stop-color="#c2ccd2"/><stop offset="1" stop-color="#e2ded4"/></linearGradient><radialGradient id="vsun3" cx="0.5" cy="0.5" r="0.5"><stop offset="0" stop-color="#f4ead6" stop-opacity="0.7"/><stop offset="1" stop-color="#f4ead6" stop-opacity="0"/></radialGradient><linearGradient id="sea4" x1="0" y1="0" x2="0" y2="1"><stop offset="0" stop-color="#6e8496"/><stop offset="1" stop-color="#2c3d51"/></linearGradient><linearGradient id="vp5" x1="0" y1="0" x2="0" y2="1"><stop offset="0" stop-color="#f4ead6" stop-opacity="0.4"/><stop offset="1" stop-color="#f4ead6" stop-opacity="0"/></linearGradient><linearGradient id="spl6" x1="0" y1="0" x2="0" y2="1"><stop offset="0" stop-color="#f4ead6" stop-opacity="0.16"/><stop offset="1" stop-color="#f4ead6" stop-opacity="0"/></linearGradient><linearGradient id="sh7" x1="1" y1="0" x2="0" y2="0.4"><stop offset="0" stop-color="#f2c489" stop-opacity="0.2"/><stop offset="1" stop-color="#f2c489" stop-opacity="0"/></linearGradient><linearGradient id="bd8" x1="0" y1="0" x2="0" y2="1"><stop offset="0" stop-color="#e2d8c8"/><stop offset="1" stop-color="#9a8f82"/></linearGradient><radialGradient id="bg9" cx="0.5" cy="0.5" r="0.5"><stop offset="0" stop-color="#f2c489" stop-opacity="0.6"/><stop offset="1" stop-color="#f2c489" stop-opacity="0"/></radialGradient><radialGradient id="bga" cx="0.5" cy="0.5" r="0.5"><stop offset="0" stop-color="#f2c489" stop-opacity="0.6"/><stop offset="1" stop-color="#f2c489" stop-opacity="0"/></radialGradient><radialGradient id="vgb" cx="0.5" cy="0.46" r="0.75"><stop offset="0" stop-color="#000000" stop-opacity="0"/><stop offset="0.62" stop-color="#000000" stop-opacity="0"/><stop offset="1" stop-color="#05060c" stop-opacity="0.5"/></radialGradient><filter id="grc" x="0" y="0" width="100%" height="100%"><feTurbulence type="fractalNoise" baseFrequency="0.9" numOctaves="2" stitchTiles="stitch"/><feColorMatrix type="matrix" values="0 0 0 0 0.5 0 0 0 0 0.5 0 0 0 0 0.5 0 0 0 0.6 0"/></filter></defs><rect x="0.0" y="0.0" width="1600.0" height="1000.0" fill="url(#wl0)" /><rect x="192.0" y="60.0" width="1.6" height="580.0" fill="#000" opacity="0.16"/><rect x="480.0" y="60.0" width="1.6" height="580.0" fill="#000" opacity="0.16"/><rect x="768.0" y="60.0" width="1.6" height="580.0" fill="#000" opacity="0.16"/><rect x="0.0" y="660.0" width="1600.0" height="340.0" fill="url(#fl1)" /><rect x="0.0" y="660.0" width="1600.0" height="2.4" fill="#000" opacity="0.4"/><rect x="0.0" y="660.0" width="1600.0" height="1.8" fill="#000000" opacity="0.18"/><rect x="0.0" y="664.2" width="1600.0" height="1.8" fill="#000000" opacity="0.19"/><rect x="0.0" y="676.8" width="1600.0" height="1.8" fill="#000000" opacity="0.21"/><rect x="0.0" y="697.8" width="1600.0" height="1.8" fill="#000000" opacity="0.22"/><rect x="0.0" y="727.2" width="1600.0" height="1.8" fill="#000000" opacity="0.23"/><rect x="0.0" y="764.9" width="1600.0" height="1.8" fill="#000000" opacity="0.25"/><rect x="0.0" y="811.1" width="1600.0" height="1.8" fill="#000000" opacity="0.26"/><rect x="0.0" y="865.7" width="1600.0" height="1.8" fill="#000000" opacity="0.27"/><rect x="0.0" y="928.6" width="1600.0" height="1.8" fill="#000000" opacity="0.29"/><polygon points="160.0,660.0 162.4,660.0 58.0,1000.0 55.0,1000.0" fill="#000" opacity="0.18"/><polygon points="448.0,660.0 450.4,660.0 400.0,1000.0 397.0,1000.0" fill="#000" opacity="0.18"/><polygon points="736.0,660.0 738.4,660.0 742.0,1000.0 739.0,1000.0" fill="#000" opacity="0.18"/><polygon points="1024.0,660.0 1026.4,660.0 1084.0,1000.0 1081.0,1000.0" fill="#000" opacity="0.18"/><polygon points="1312.0,660.0 1314.4,660.0 1426.0,1000.0 1423.0,1000.0" fill="#000" opacity="0.18"/><rect x="832.0" y="100.0" width="640.0" height="554.0" fill="url(#vw2)" /><circle cx="1216" cy="421.32" r="217.60000000000002" fill="url(#vsun3)"/><rect x="-40.0" y="356.3" width="136.1" height="91.2" fill="#8795a3" opacity="0.85"/><rect x="153.4" y="409.3" width="105.9" height="38.2" fill="#8795a3" opacity="0.85"/><rect x="206.4" y="389.1" width="2.4" height="40.0" fill="#8795a3" opacity="0.85"/><rect x="274.4" y="413.2" width="76.8" height="34.2" fill="#8795a3" opacity="0.85"/><rect x="400.0" y="400.5" width="55.9" height="47.0" fill="#8795a3" opacity="0.85"/><rect x="505.0" y="375.8" width="88.5" height="71.7" fill="#8795a3" opacity="0.85"/><rect x="638.3" y="376.2" width="90.8" height="71.2" fill="#8795a3" opacity="0.85"/><rect x="683.7" y="348.7" width="2.4" height="40.0" fill="#8795a3" opacity="0.85"/><rect x="779.2" y="396.9" width="76.4" height="50.6" fill="#8795a3" opacity="0.85"/><rect x="865.6" y="372.7" width="134.3" height="74.8" fill="#8795a3" opacity="0.85"/><rect x="1040.2" y="364.7" width="60.2" height="82.8" fill="#8795a3" opacity="0.85"/><rect x="1070.3" y="333.9" width="2.4" height="40.0" fill="#8795a3" opacity="0.85"/><rect x="1149.2" y="414.4" width="107.5" height="33.1" fill="#8795a3" opacity="0.85"/><rect x="1274.9" y="368.6" width="103.0" height="78.9" fill="#8795a3" opacity="0.85"/><rect x="1418.7" y="377.8" width="88.7" height="69.6" fill="#8795a3" opacity="0.85"/><rect x="1523.2" y="357.2" width="102.1" height="90.2" fill="#8795a3" opacity="0.85"/><rect x="832.0" y="443.5" width="640.0" height="210.5" fill="url(#sea4)" /><rect x="832.0" y="443.5" width="640.0" height="2.2" fill="#f4ead6" opacity="0.4"/><polygon points="1184.0,443.5 1254.4,443.5 1292.8,654.0 1132.8,654.0" fill="url(#vp5)" /><rect x="832.0" y="100.0" width="640.0" height="554.0" fill="#1c2438" opacity="0.12"/><polygon points="883.2,100.0 960.0,100.0 844.8,654.0 819.2,654.0" fill="#ffffff" opacity="0.05"/><rect x="832.0" y="100.0" width="640.0" height="554.0" fill="none" stroke="#14101c" stroke-width="12"/><rect x="1148.0" y="100.0" width="8.0" height="554.0" fill="#14101c" /><rect x="989.5" y="100.0" width="5.0" height="554.0" fill="#14101c" opacity="0.9"/><rect x="1309.5" y="100.0" width="5.0" height="554.0" fill="#14101c" opacity="0.9"/><polygon points="802.0,660.0 1472.0,660.0 1552.0,1000.0 652.0,1000.0" fill="url(#spl6)" /><polygon points="832.0,140.0 832.0,750.0 288.0,1000.0 608.0,1000.0" fill="url(#sh7)" /><ellipse cx="448.0" cy="850.0" rx="416.0" ry="48.0" fill="#3a3444" opacity="0.5"/><ellipse cx="440.0" cy="790.0" rx="336.0" ry="26.0" fill="#000000" opacity="0.45"/><rect x="168.0" y="680.0" width="544.0" height="75.0" fill="#2c2536" /><rect x="160" y="565" width="560" height="150" rx="14" fill="url(#bd8)"/><path d="M 160 630 Q 448.00000000000006 615 720 635" stroke="#6e675e" stroke-width="3" fill="none" opacity="0.6"/><rect x="152" y="465" width="576" height="115" rx="10" fill="#3a3244"/><rect x="208" y="530" width="192" height="50" rx="10" fill="#efe6d6"/><rect x="463.99999999999994" y="530" width="192" height="50" rx="10" fill="#e6dccb"/><rect x="272" y="550" width="144" height="38" rx="8" fill="#8a7358"/><polygon points="160.0,665.0 720.0,675.0 720.0,710.0 160.0,700.0" fill="#5c4b5e" opacity="0.9"/><ellipse cx="116.0" cy="710.0" rx="34.0" ry="8.0" fill="#000" opacity="0.4"/><rect x="96.0" y="630.0" width="44.0" height="75.0" fill="#241e2e" /><rect x="96.0" y="630.0" width="44.0" height="4.0" fill="#3d3450" /><rect x="114.0" y="585.0" width="6.0" height="45.0" fill="#171221" /><circle cx="117" cy="572" r="56" fill="url(#bg9)"/><polygon points="100.0,588.0 134.0,588.0 128.0,552.0 106.0,552.0" fill="#f6d3a0" opacity="0.92"/><ellipse cx="780.0" cy="710.0" rx="34.0" ry="8.0" fill="#000" opacity="0.4"/><rect x="760.0" y="630.0" width="44.0" height="75.0" fill="#241e2e" /><rect x="760.0" y="630.0" width="44.0" height="4.0" fill="#3d3450" /><rect x="778.0" y="585.0" width="6.0" height="45.0" fill="#171221" /><circle cx="781" cy="572" r="56" fill="url(#bga)"/><polygon points="764.0,588.0 798.0,588.0 792.0,552.0 770.0,552.0" fill="#f6d3a0" opacity="0.92"/><rect x="304.0" y="170.0" width="272.0" height="200.0" fill="#1c1826" /><rect x="316.8" y="181.0" width="246.4" height="178.0" fill="#4a3f5c" /><ellipse cx="392.0" cy="280.0" rx="40.0" ry="30.0" fill="#6e5a70" opacity="0.5"/><rect x="0.0" y="0.0" width="1600.0" height="1000.0" fill="url(#vgb)" /><rect x="0" y="0" width="1600" height="1000" filter="url(#grc)" opacity="0.045"/></svg>