<svg xmlns="http://www.w3.org/2000/svg" viewBox="0 0 1600 1000" preserveAspectRatio="xMidYMid slice"><defs><linearGradient id="sky0" x1="0" y1="0" x2="0" y2="1"><stop offset="0" stop-color="#332742"/><stop offset="0.5" stop-color="#75484d"/><stop offset="0.82" stop-color="#c98a5e"/><stop offset="1" stop-color="#e8b476"/></linearGradient><radialGradient id="sun1" cx="0.5" cy="0.5" r="0.5"><stop offset="0" stop-color="#f7cf96" stop-opacity="0.65"/><stop offset="1" stop-color="#f7cf96" stop-opacity="0"/></radialGradient><linearGradient id="hz2" x1="0" y1="0" x2="0" y2="1"><stop offset="0" stop-color="#5c4053" stop-opacity="0"/><stop offset="0.55" stop-color="#5c4053" stop-opacity="0.5"/><stop offset="1" stop-color="#5c4053" stop-opacity="0"/></linearGradient><linearGradient id="og3" x1="0" y1="0" x2="0" y2="1"><stop offset="0" stop-color="#3a2f4e"/><stop offset="0.5" stop-color="#6b4553"/><stop offset="0.8" stop-color="#b0765c"/><stop offset="1" stop-color="#463349"/></linearGradient><radialGradient id="fl4" cx="0.5" cy="0.5" r="0.5"><stop offset="0" stop-color="#f7cf96" stop-opacity="0.38"/><stop offset="0.55" stop-color="#f7cf96" stop-opacity="0.14"/><stop offset="1" stop-color="#f7cf96" stop-opacity="0"/></radialGradient><linearGradient id="fs5" x1="0" y1="0" x2="0" y2="1"><stop offset="0" stop-color="#f7cf96" stop-opacity="0"/><stop offset="0.5" stop-color="#f7cf96" stop-opacity="0.22"/><stop offset="1" stop-color="#f7cf96" stop-opacity="0"/></linearGradient><linearGradient id="st6" x1="0" y1="0" x2="0" y2="1"><stop offset="0" stop-color="#241d2e"/><stop offset="1" stop-color="#0e0b14"/></linearGradient><linearGradient id="lr7" x1="0" y1="0" x2="0" y2="1"><stop offset="0" stop-color="#f7d49b" stop-opacity="0.3"/><stop offset="1" stop-color="#f7d49b" stop-opacity="0"/></linearGradient><radialGradient id="vg8" cx="0.5" cy="0.46" r="0.75"><stop offset="0" stop-color="#000000" stop-opacity="0"/><stop offset="0.62" stop-color="#000000" stop-opacity="0"/><stop offset="1" stop-color="#05060c" stop-opacity="0.52"/></radialGradient><filter id="gr9" x="0" y="0" width="100%" height="100%"><feTurbulence type="fractalNoise" baseFrequency="0.9" numOctaves="2" stitchTiles="stitch"/><feColorMatrix type="matrix" values="0 0 0 0 0.5 0 0 0 0 0.5 0 0 0 0 0.5 0 0 0 0.6 0"/></filter></defs><rect x="0.0" y="0.0" width="1600.0" height="1000.0" fill="url(#sky0)" /><circle cx="384" cy="600" r="640" fill="url(#sun1)"/><rect x="-40.0" y="769.1" width="86.6" height="94.9" fill="#42324c" opacity="0.75"/><rect x="93.7" y="670.2" width="46.7" height="193.8" fill="#42324c" opacity="0.75"/><rect x="160.8" y="674.5" width="144.9" height="189.5" fill="#42324c" opacity="0.75"/><rect x="336.5" y="656.3" width="123.0" height="207.7" fill="#42324c" opacity="0.75"/><rect x="497.4" y="646.1" width="59.4" height="217.9" fill="#42324c" opacity="0.75"/><rect x="579.3" y="775.8" width="99.2" height="88.2" fill="#42324c" opacity="0.75"/><rect x="699.6" y="756.4" width="129.9" height="107.6" fill="#42324c" opacity="0.75"/><rect x="854.8" y="689.3" width="101.2" height="174.7" fill="#42324c" opacity="0.75"/><rect x="989.3" y="710.9" width="87.8" height="153.1" fill="#42324c" opacity="0.75"/><rect x="1126.8" y="649.8" width="78.8" height="214.2" fill="#42324c" opacity="0.75"/><rect x="1217.2" y="663.8" width="48.5" height="200.2" fill="#42324c" opacity="0.75"/><rect x="1283.0" y="713.5" width="64.1" height="150.5" fill="#42324c" opacity="0.75"/><rect x="1315.1" y="682.4" width="2.4" height="40.0" fill="#42324c" opacity="0.75"/><rect x="1369.1" y="655.4" width="110.2" height="208.6" fill="#42324c" opacity="0.75"/><rect x="1501.4" y="615.9" width="140.1" height="248.1" fill="#42324c" opacity="0.75"/><rect x="0.0" y="670.0" width="1600.0" height="210.0" fill="url(#hz2)" /><rect x="672.0" y="60.0" width="480.0" height="800.0" fill="url(#og3)" /><rect x="730.8" y="60.0" width="2.4" height="800.0" fill="#171224" opacity="0.8"/><rect x="790.8" y="60.0" width="2.4" height="800.0" fill="#171224" opacity="0.8"/><rect x="850.8" y="60.0" width="2.4" height="800.0" fill="#171224" opacity="0.8"/><rect x="910.8" y="60.0" width="2.4" height="800.0" fill="#171224" opacity="0.8"/><rect x="970.8" y="60.0" width="2.4" height="800.0" fill="#171224" opacity="0.8"/><rect x="1030.8" y="60.0" width="2.4" height="800.0" fill="#171224" opacity="0.8"/><rect x="1090.8" y="60.0" width="2.4" height="800.0" fill="#171224" opacity="0.8"/><rect x="672.0" y="95.4" width="480.0" height="2.0" fill="#171224" opacity="0.65"/><rect x="672.0" y="131.7" width="480.0" height="2.0" fill="#171224" opacity="0.65"/><rect x="672.0" y="168.1" width="480.0" height="2.0" fill="#171224" opacity="0.65"/><rect x="672.0" y="204.5" width="480.0" height="2.0" fill="#171224" opacity="0.65"/><rect x="672.0" y="240.8" width="480.0" height="2.0" fill="#171224" opacity="0.65"/><rect x="672.0" y="277.2" width="480.0" height="2.0" fill="#171224" opacity="0.65"/><rect x="672.0" y="313.5" width="480.0" height="2.0" fill="#171224" opacity="0.65"/><rect x="672.0" y="349.9" width="480.0" height="2.0" fill="#171224" opacity="0.65"/><rect x="672.0" y="386.3" width="480.0" height="2.0" fill="#171224" opacity="0.65"/><rect x="672.0" y="422.6" width="480.0" height="2.0" fill="#171224" opacity="0.65"/><rect x="672.0" y="459.0" width="480.0" height="2.0" fill="#171224" opacity="0.65"/><rect x="672.0" y="495.4" width="480.0" height="2.0" fill="#171224" opacity="0.65"/><rect x="672.0" y="531.7" width="480.0" height="2.0" fill="#171224" opacity="0.65"/><rect x="672.0" y="568.1" width="480.0" height="2.0" fill="#171224" opacity="0.65"/><rect x="672.0" y="604.5" width="480.0" height="2.0" fill="#171224" opacity="0.65"/><rect x="672.0" y="640.8" width="480.0" height="2.0" fill="#171224" opacity="0.65"/><rect x="672.0" y="677.2" width="480.0" height="2.0" fill="#171224" opacity="0.65"/><rect x="672.0" y="713.5" width="480.0" height="2.0" fill="#171224" opacity="0.65"/><rect x="672.0" y="749.9" width="480.0" height="2.0" fill="#171224" opacity="0.65"/><rect x="672.0" y="786.3" width="480.0" height="2.0" fill="#171224" opacity="0.65"/><rect x="672.0" y="822.6" width="480.0" height="2.0" fill="#171224" opacity="0.65"/><circle cx="806.4" cy="412" r="240" fill="url(#fl4)"/><rect x="672.0" y="364.0" width="480.0" height="44.0" fill="url(#fs5)" /><rect x="256.0" y="560.0" width="200.0" height="300.0" fill="#2c2338" /><rect x="271.9" y="575.2" width="33.3" height="24.5" fill="#241d33" opacity="0.67"/><rect x="271.9" y="610.2" width="33.3" height="24.5" fill="#241d33" opacity="0.74"/><rect x="271.9" y="645.2" width="33.3" height="24.5" fill="#241d33" opacity="0.61"/><rect x="271.9" y="680.2" width="33.3" height="24.5" fill="#241d33" opacity="0.59"/><rect x="271.9" y="715.2" width="33.3" height="24.5" fill="#f7d49b" opacity="0.56"/><rect x="271.9" y="750.2" width="33.3" height="24.5" fill="#241d33" opacity="0.71"/><rect x="271.9" y="785.2" width="33.3" height="24.5" fill="#241d33" opacity="0.60"/><rect x="271.9" y="820.2" width="33.3" height="24.5" fill="#241d33" opacity="0.89"/><rect x="316.9" y="575.2" width="33.3" height="24.5" fill="#241d33" opacity="0.73"/><rect x="316.9" y="610.2" width="33.3" height="24.5" fill="#241d33" opacity="0.56"/><rect x="316.9" y="645.2" width="33.3" height="24.5" fill="#f7d49b" opacity="0.71"/><rect x="316.9" y="680.2" width="33.3" height="24.5" fill="#241d33" opacity="0.50"/><rect x="316.9" y="715.2" width="33.3" height="24.5" fill="#241d33" opacity="0.84"/><rect x="316.9" y="750.2" width="33.3" height="24.5" fill="#241d33" opacity="0.83"/><rect x="316.9" y="785.2" width="33.3" height="24.5" fill="#241d33" opacity="0.58"/><rect x="316.9" y="820.2" width="33.3" height="24.5" fill="#f7d49b" opacity="0.69"/><rect x="361.9" y="575.2" width="33.3" height="24.5" fill="#241d33" opacity="0.76"/><rect x="361.9" y="610.2" width="33.3" height="24.5" fill="#f7d49b" opacity="0.63"/><rect x="361.9" y="645.2" width="33.3" height="24.5" fill="#241d33" opacity="0.62"/><rect x="361.9" y="680.2" width="33.3" height="24.5" fill="#241d33" opacity="0.54"/><rect x="361.9" y="715.2" width="33.3" height="24.5" fill="#241d33" opacity="0.82"/><rect x="361.9" y="750.2" width="33.3" height="24.5" fill="#f7d49b" opacity="0.46"/><rect x="361.9" y="785.2" width="33.3" height="24.5" fill="#241d33" opacity="0.82"/><rect x="361.9" y="820.2" width="33.3" height="24.5" fill="#241d33" opacity="0.73"/><rect x="406.9" y="575.2" width="33.3" height="24.5" fill="#241d33" opacity="0.71"/><rect x="406.9" y="610.2" width="33.3" height="24.5" fill="#241d33" opacity="0.78"/><rect x="406.9" y="645.2" width="33.3" height="24.5" fill="#241d33" opacity="0.77"/><rect x="406.9" y="680.2" width="33.3" height="24.5" fill="#241d33" opacity="0.83"/><rect x="406.9" y="715.2" width="33.3" height="24.5" fill="#241d33" opacity="0.77"/><rect x="406.9" y="750.2" width="33.3" height="24.5" fill="#241d33" opacity="0.72"/><rect x="406.9" y="785.2" width="33.3" height="24.5" fill="#241d33" opacity="0.52"/><rect x="406.9" y="820.2" width="33.3" height="24.5" fill="#f7d49b" opacity="0.59"/><rect x="1248.0" y="480.0" width="230.0" height="380.0" fill="#2c2338" /><rect x="1265.4" y="497.2" width="30.5" height="24.5" fill="#241d33" opacity="0.77"/><rect x="1265.4" y="532.2" width="30.5" height="24.5" fill="#241d33" opacity="0.76"/><rect x="1265.4" y="567.2" width="30.5" height="24.5" fill="#241d33" opacity="0.64"/><rect x="1265.4" y="602.2" width="30.5" height="24.5" fill="#f7d49b" opacity="0.49"/><rect x="1265.4" y="637.2" width="30.5" height="24.5" fill="#241d33" opacity="0.51"/><rect x="1265.4" y="672.2" width="30.5" height="24.5" fill="#241d33" opacity="0.59"/><rect x="1265.4" y="707.2" width="30.5" height="24.5" fill="#241d33" opacity="0.73"/><rect x="1265.4" y="742.2" width="30.5" height="24.5" fill="#f7d49b" opacity="0.58"/><rect x="1265.4" y="777.2" width="30.5" height="24.5" fill="#241d33" opacity="0.80"/><rect x="1265.4" y="812.2" width="30.5" height="24.5" fill="#f7d49b" opacity="0.53"/><rect x="1306.6" y="497.2" width="30.5" height="24.5" fill="#f7d49b" opacity="0.74"/><rect x="1306.6" y="532.2" width="30.5" height="24.5" fill="#f7d49b" opacity="0.71"/><rect x="1306.6" y="567.2" width="30.5" height="24.5" fill="#f7d49b" opacity="0.52"/><rect x="1306.6" y="602.2" width="30.5" height="24.5" fill="#f7d49b" opacity="0.72"/><rect x="1306.6" y="637.2" width="30.5" height="24.5" fill="#241d33" opacity="0.50"/><rect x="1306.6" y="672.2" width="30.5" height="24.5" fill="#241d33" opacity="0.62"/><rect x="1306.6" y="707.2" width="30.5" height="24.5" fill="#f7d49b" opacity="0.80"/><rect x="1306.6" y="742.2" width="30.5" height="24.5" fill="#f7d49b" opacity="0.40"/><rect x="1306.6" y="777.2" width="30.5" height="24.5" fill="#241d33" opacity="0.61"/><rect x="1306.6" y="812.2" width="30.5" height="24.5" fill="#f7d49b" opacity="0.42"/><rect x="1347.8" y="497.2" width="30.5" height="24.5" fill="#f7d49b" opacity="0.65"/><rect x="1347.8" y="532.2" width="30.5" height="24.5" fill="#241d33" opacity="0.73"/><rect x="1347.8" y="567.2" width="30.5" height="24.5" fill="#f7d49b" opacity="0.75"/><rect x="1347.8" y="602.2" width="30.5" height="24.5" fill="#241d33" opacity="0.56"/><rect x="1347.8" y="637.2" width="30.5" height="24.5" fill="#241d33" opacity="0.59"/><rect x="1347.8" y="672.2" width="30.5" height="24.5" fill="#241d33" opacity="0.66"/><rect x="1347.8" y="707.2" width="30.5" height="24.5" fill="#f7d49b" opacity="0.55"/><rect x="1347.8" y="742.2" width="30.5" height="24.5" fill="#241d33" opacity="0.63"/><rect x="1347.8" y="777.2" width="30.5" height="24.5" fill="#f7d49b" opacity="0.40"/><rect x="1347.8" y="812.2" width="30.5" height="24.5" fill="#241d33" opacity="0.76"/><rect x="1389.0" y="497.2" width="30.5" height="24.5" fill="#241d33" opacity="0.77"/><rect x="1389.0" y="532.2" width="30.5" height="24.5" fill="#241d33" opacity="0.71"/><rect x="1389.0" y="567.2" width="30.5" height="24.5" fill="#241d33" opacity="0.55"/><rect x="1389.0" y="602.2" width="30.5" height="24.5" fill="#241d33" opacity="0.69"/><rect x="1389.0" y="637.2" width="30.5" height="24.5" fill="#241d33" opacity="0.73"/><rect x="1389.0" y="672.2" width="30.5" height="24.5" fill="#241d33" opacity="0.50"/><rect x="1389.0" y="707.2" width="30.5" height="24.5" fill="#241d33" opacity="0.90"/><rect x="1389.0" y="742.2" width="30.5" height="24.5" fill="#241d33" opacity="0.54"/><rect x="1389.0" y="777.2" width="30.5" height="24.5" fill="#241d33" opacity="0.80"/><rect x="1389.0" y="812.2" width="30.5" height="24.5" fill="#241d33" opacity="0.72"/><rect x="1430.2" y="497.2" width="30.5" height="24.5" fill="#241d33" opacity="0.71"/><rect x="1430.2" y="532.2" width="30.5" height="24.5" fill="#241d33" opacity="0.64"/><rect x="1430.2" y="567.2" width="30.5" height="24.5" fill="#f7d49b" opacity="0.64"/><rect x="1430.2" y="602.2" width="30.5" height="24.5" fill="#241d33" opacity="0.85"/><rect x="1430.2" y="637.2" width="30.5" height="24.5" fill="#f7d49b" opacity="0.58"/><rect x="1430.2" y="672.2" width="30.5" height="24.5" fill="#241d33" opacity="0.77"/><rect x="1430.2" y="707.2" width="30.5" height="24.5" fill="#241d33" opacity="0.65"/><rect x="1430.2" y="742.2" width="30.5" height="24.5" fill="#241d33" opacity="0.80"/><rect x="1430.2" y="777.2" width="30.5" height="24.5" fill="#241d33" opacity="0.84"/><rect x="1430.2" y="812.2" width="30.5" height="24.5" fill="#241d33" opacity="0.64"/><rect x="0.0" y="860.0" width="1600.0" height="140.0" fill="url(#st6)" /><rect x="672.0" y="826.0" width="480.0" height="34.0" fill="#f7d49b" opacity="0.55"/><rect x="672.0" y="860.0" width="480.0" height="70.0" fill="url(#lr7)" /><rect x="0.0" y="0.0" width="1600.0" height="1000.0" fill="url(#vg8)" /><rect x="0" y="0" width="1600" height="1000" filter="url(#gr9)" opacity="0.05"/></svg>